<svg width="355" height="121" viewBox="0 0 355 121" fill="none" xmlns="http://www.w3.org/2000/svg">
<path d="M284.908 2C287.208 2 289.413 2.91062 291.039 4.53154C292.665 6.15245 293.578 8.35088 293.578 10.6432C293.578 12.9355 292.665 15.134 291.039 16.7549C289.413 18.3758 287.208 19.2864 284.908 19.2864C282.609 19.2864 280.404 18.3758 278.778 16.7549C277.152 15.134 276.239 12.9355 276.239 10.6432C276.239 8.35088 277.152 6.15245 278.778 4.53154C280.404 2.91062 282.609 2 284.908 2ZM284.908 23.608C294.488 23.608 302.248 27.4758 302.248 32.2512V36.5728H267.569V32.2512C267.569 27.4758 275.328 23.608 284.908 23.608Z" fill="#686B6F"/>
<path d="M213.624 73C215.923 73 218.128 73.9106 219.754 75.5315C221.38 77.1525 222.293 79.3509 222.293 81.6432C222.293 83.9355 221.38 86.134 219.754 87.7549C218.128 89.3758 215.923 90.2864 213.624 90.2864C211.324 90.2864 209.119 89.3758 207.493 87.7549C205.867 86.134 204.954 83.9355 204.954 81.6432C204.954 79.3509 205.867 77.1525 207.493 75.5315C209.119 73.9106 211.324 73 213.624 73ZM213.624 94.608C223.204 94.608 230.963 98.4758 230.963 103.251V107.573H196.284V103.251C196.284 98.4758 204.044 94.608 213.624 94.608Z" fill="#686B6F"/>
<path d="M142.339 2C144.639 2 146.844 2.91062 148.47 4.53154C150.096 6.15245 151.009 8.35088 151.009 10.6432C151.009 12.9355 150.096 15.134 148.47 16.7549C146.844 18.3758 144.639 19.2864 142.339 19.2864C140.04 19.2864 137.835 18.3758 136.209 16.7549C134.583 15.134 133.67 12.9355 133.67 10.6432C133.67 8.35088 134.583 6.15245 136.209 4.53154C137.835 2.91062 140.04 2 142.339 2ZM142.339 23.608C151.919 23.608 159.679 27.4758 159.679 32.2512V36.5728H125V32.2512C125 27.4758 132.759 23.608 142.339 23.608Z" fill="#686B6F"/>
<path d="M326 0.5H308C307.724 0.5 307.5 0.723858 307.5 1V19C307.5 19.2761 307.724 19.5 308 19.5H326C326.276 19.5 326.5 19.2761 326.5 19V1C326.5 0.723858 326.276 0.5 326 0.5Z" stroke="#F5F2F5"/>
<path d="M316.997 11.6634C317.917 11.6634 318.663 10.9172 318.663 9.99675C318.663 9.07627 317.917 8.33008 316.997 8.33008C316.076 8.33008 315.33 9.07627 315.33 9.99675C315.33 10.9172 316.076 11.6634 316.997 11.6634Z" fill="#F5F2F5"/>
<path d="M354 0.5H336C335.724 0.5 335.5 0.723858 335.5 1V19C335.5 19.2761 335.724 19.5 336 19.5H354C354.276 19.5 354.5 19.2761 354.5 19V1C354.5 0.723858 354.276 0.5 354 0.5Z" stroke="#F5F2F5"/>
<path d="M340 6.66659C340.921 6.66659 341.667 5.9204 341.667 4.99992C341.667 4.07945 340.921 3.33325 340 3.33325C339.08 3.33325 338.333 4.07945 338.333 4.99992C338.333 5.9204 339.08 6.66659 340 6.66659Z" fill="#F5F2F5"/>
<path d="M340 16.6666C340.921 16.6666 341.667 15.9204 341.667 14.9999C341.667 14.0794 340.921 13.3333 340 13.3333C339.08 13.3333 338.333 14.0794 338.333 14.9999C338.333 15.9204 339.08 16.6666 340 16.6666Z" fill="#F5F2F5"/>
<path d="M350 16.6666C350.921 16.6666 351.667 15.9204 351.667 14.9999C351.667 14.0794 350.921 13.3333 350 13.3333C349.08 13.3333 348.333 14.0794 348.333 14.9999C348.333 15.9204 349.08 16.6666 350 16.6666Z" fill="#F5F2F5"/>
<path d="M350 6.66659C350.921 6.66659 351.667 5.9204 351.667 4.99992C351.667 4.07945 350.921 3.33325 350 3.33325C349.08 3.33325 348.333 4.07945 348.333 4.99992C348.333 5.9204 349.08 6.66659 350 6.66659Z" fill="#F5F2F5"/>
<path d="M326 28.5H308C307.724 28.5 307.5 28.7239 307.5 29V47C307.5 47.2761 307.724 47.5 308 47.5H326C326.276 47.5 326.5 47.2761 326.5 47V29C326.5 28.7239 326.276 28.5 326 28.5Z" stroke="#F5F2F5"/>
<path d="M312 34.6668C312.921 34.6668 313.667 33.9206 313.667 33.0002C313.667 32.0797 312.921 31.3335 312 31.3335C311.08 31.3335 310.333 32.0797 310.333 33.0002C310.333 33.9206 311.08 34.6668 312 34.6668Z" fill="#F5F2F5"/>
<path d="M316.997 39.6634C317.917 39.6634 318.663 38.9172 318.663 37.9967C318.663 37.0763 317.917 36.3301 316.997 36.3301C316.076 36.3301 315.33 37.0763 315.33 37.9967C315.33 38.9172 316.076 39.6634 316.997 39.6634Z" fill="#F5F2F5"/>
<path d="M312 44.6666C312.921 44.6666 313.667 43.9204 313.667 42.9999C313.667 42.0794 312.921 41.3333 312 41.3333C311.08 41.3333 310.333 42.0794 310.333 42.9999C310.333 43.9204 311.08 44.6666 312 44.6666Z" fill="#F5F2F5"/>
<path d="M322 44.6666C322.921 44.6666 323.667 43.9204 323.667 42.9999C323.667 42.0794 322.921 41.3333 322 41.3333C321.08 41.3333 320.333 42.0794 320.333 42.9999C320.333 43.9204 321.08 44.6666 322 44.6666Z" fill="#F5F2F5"/>
<path d="M322 34.6666C322.921 34.6666 323.667 33.9204 323.667 32.9999C323.667 32.0794 322.921 31.3333 322 31.3333C321.08 31.3333 320.333 32.0794 320.333 32.9999C320.333 33.9204 321.08 34.6666 322 34.6666Z" fill="#F5F2F5"/>
<path d="M354 27.5H336C335.724 27.5 335.5 27.7239 335.5 28V46C335.5 46.2761 335.724 46.5 336 46.5H354C354.276 46.5 354.5 46.2761 354.5 46V28C354.5 27.7239 354.276 27.5 354 27.5Z" stroke="#F5F2F5"/>
<path d="M340 33.6666C340.921 33.6666 341.667 32.9204 341.667 31.9999C341.667 31.0794 340.921 30.3333 340 30.3333C339.08 30.3333 338.333 31.0794 338.333 31.9999C338.333 32.9204 339.08 33.6666 340 33.6666Z" fill="#F5F2F5"/>
<path d="M340 43.6666C340.921 43.6666 341.667 42.9204 341.667 41.9999C341.667 41.0794 340.921 40.3333 340 40.3333C339.08 40.3333 338.333 41.0794 338.333 41.9999C338.333 42.9204 339.08 43.6666 340 43.6666Z" fill="#F5F2F5"/>
<path d="M350 43.6666C350.921 43.6666 351.667 42.9204 351.667 41.9999C351.667 41.0794 350.921 40.3333 350 40.3333C349.08 40.3333 348.333 41.0794 348.333 41.9999C348.333 42.9204 349.08 43.6666 350 43.6666Z" fill="#F5F2F5"/>
<path d="M350 33.6666C350.921 33.6666 351.667 32.9204 351.667 31.9999C351.667 31.0794 350.921 30.3333 350 30.3333C349.08 30.3333 348.333 31.0794 348.333 31.9999C348.333 32.9204 349.08 33.6666 350 33.6666Z" fill="#F5F2F5"/>
<path d="M258 73.5H240C239.724 73.5 239.5 73.7239 239.5 74V92C239.5 92.2761 239.724 92.5 240 92.5H258C258.276 92.5 258.5 92.2761 258.5 92V74C258.5 73.7239 258.276 73.5 258 73.5Z" stroke="#F5F2F5"/>
<path d="M244 79.6668C244.921 79.6668 245.667 78.9206 245.667 78.0002C245.667 77.0797 244.921 76.3335 244 76.3335C243.08 76.3335 242.333 77.0797 242.333 78.0002C242.333 78.9206 243.08 79.6668 244 79.6668Z" fill="#F5F2F5"/>
<path d="M248.997 84.6634C249.918 84.6634 250.664 83.9172 250.664 82.9967C250.664 82.0763 249.918 81.3301 248.997 81.3301C248.077 81.3301 247.331 82.0763 247.331 82.9967C247.331 83.9172 248.077 84.6634 248.997 84.6634Z" fill="#F5F2F5"/>
<path d="M254 89.6666C254.921 89.6666 255.667 88.9204 255.667 87.9999C255.667 87.0794 254.921 86.3333 254 86.3333C253.08 86.3333 252.333 87.0794 252.333 87.9999C252.333 88.9204 253.08 89.6666 254 89.6666Z" fill="#F5F2F5"/>
<path d="M286 73.5H268C267.724 73.5 267.5 73.7239 267.5 74V92C267.5 92.2761 267.724 92.5 268 92.5H286C286.276 92.5 286.5 92.2761 286.5 92V74C286.5 73.7239 286.276 73.5 286 73.5Z" stroke="#F5F2F5"/>
<path d="M272 79.6668C272.921 79.6668 273.667 78.9206 273.667 78.0002C273.667 77.0797 272.921 76.3335 272 76.3335C271.08 76.3335 270.333 77.0797 270.333 78.0002C270.333 78.9206 271.08 79.6668 272 79.6668Z" fill="#F5F2F5"/>
<path d="M276.997 84.6634C277.917 84.6634 278.663 83.9172 278.663 82.9967C278.663 82.0763 277.917 81.3301 276.997 81.3301C276.076 81.3301 275.33 82.0763 275.33 82.9967C275.33 83.9172 276.076 84.6634 276.997 84.6634Z" fill="#F5F2F5"/>
<path d="M272 89.6666C272.921 89.6666 273.667 88.9204 273.667 87.9999C273.667 87.0794 272.921 86.3333 272 86.3333C271.08 86.3333 270.333 87.0794 270.333 87.9999C270.333 88.9204 271.08 89.6666 272 89.6666Z" fill="#F5F2F5"/>
<path d="M282 89.6666C282.921 89.6666 283.667 88.9204 283.667 87.9999C283.667 87.0794 282.921 86.3333 282 86.3333C281.08 86.3333 280.333 87.0794 280.333 87.9999C280.333 88.9204 281.08 89.6666 282 89.6666Z" fill="#F5F2F5"/>
<path d="M282 79.6666C282.921 79.6666 283.667 78.9204 283.667 77.9999C283.667 77.0794 282.921 76.3333 282 76.3333C281.08 76.3333 280.333 77.0794 280.333 77.9999C280.333 78.9204 281.08 79.6666 282 79.6666Z" fill="#F5F2F5"/>
<path d="M258 101.5H240C239.724 101.5 239.5 101.724 239.5 102V120C239.5 120.276 239.724 120.5 240 120.5H258C258.276 120.5 258.5 120.276 258.5 120V102C258.5 101.724 258.276 101.5 258 101.5Z" stroke="#F5F2F5"/>
<path d="M244 107.667C244.921 107.667 245.667 106.92 245.667 106C245.667 105.079 244.921 104.333 244 104.333C243.08 104.333 242.333 105.079 242.333 106C242.333 106.92 243.08 107.667 244 107.667Z" fill="#F5F2F5"/>
<path d="M243.997 112.664C244.918 112.664 245.664 111.917 245.664 110.997C245.664 110.077 244.918 109.33 243.997 109.33C243.077 109.33 242.331 110.077 242.331 110.997C242.331 111.917 243.077 112.664 243.997 112.664Z" fill="#F5F2F5"/>
<path d="M253.997 112.664C254.918 112.664 255.664 111.917 255.664 110.997C255.664 110.077 254.918 109.33 253.997 109.33C253.077 109.33 252.331 110.077 252.331 110.997C252.331 111.917 253.077 112.664 253.997 112.664Z" fill="#F5F2F5"/>
<path d="M244 117.667C244.921 117.667 245.667 116.92 245.667 116C245.667 115.079 244.921 114.333 244 114.333C243.08 114.333 242.333 115.079 242.333 116C242.333 116.92 243.08 117.667 244 117.667Z" fill="#F5F2F5"/>
<path d="M254 117.667C254.921 117.667 255.667 116.92 255.667 116C255.667 115.079 254.921 114.333 254 114.333C253.08 114.333 252.333 115.079 252.333 116C252.333 116.92 253.08 117.667 254 117.667Z" fill="#F5F2F5"/>
<path d="M254 107.667C254.921 107.667 255.667 106.92 255.667 106C255.667 105.079 254.921 104.333 254 104.333C253.08 104.333 252.333 105.079 252.333 106C252.333 106.92 253.08 107.667 254 107.667Z" fill="#F5F2F5"/>
<path d="M286 101.5H268C267.724 101.5 267.5 101.724 267.5 102V120C267.5 120.276 267.724 120.5 268 120.5H286C286.276 120.5 286.5 120.276 286.5 120V102C286.5 101.724 286.276 101.5 286 101.5Z" stroke="#F5F2F5"/>
<path d="M272 107.667C272.921 107.667 273.667 106.92 273.667 106C273.667 105.079 272.921 104.333 272 104.333C271.08 104.333 270.333 105.079 270.333 106C270.333 106.92 271.08 107.667 272 107.667Z" fill="#F5F2F5"/>
<path d="M276.997 112.664C277.917 112.664 278.663 111.917 278.663 110.997C278.663 110.077 277.917 109.33 276.997 109.33C276.076 109.33 275.33 110.077 275.33 110.997C275.33 111.917 276.076 112.664 276.997 112.664Z" fill="#F5F2F5"/>
<path d="M282 117.667C282.921 117.667 283.667 116.92 283.667 116C283.667 115.079 282.921 114.333 282 114.333C281.08 114.333 280.333 115.079 280.333 116C280.333 116.92 281.08 117.667 282 117.667Z" fill="#F5F2F5"/>
<path d="M181 0.5H163C162.724 0.5 162.5 0.723858 162.5 1V19C162.5 19.2761 162.724 19.5 163 19.5H181C181.276 19.5 181.5 19.2761 181.5 19V1C181.5 0.723858 181.276 0.5 181 0.5Z" stroke="#F5F2F5"/>
<path d="M167 6.66684C167.921 6.66684 168.667 5.92064 168.667 5.00017C168.667 4.07969 167.921 3.3335 167 3.3335C166.08 3.3335 165.333 4.07969 165.333 5.00017C165.333 5.92064 166.08 6.66684 167 6.66684Z" fill="#F5F2F5"/>
<path d="M177 16.6666C177.921 16.6666 178.667 15.9204 178.667 14.9999C178.667 14.0794 177.921 13.3333 177 13.3333C176.08 13.3333 175.333 14.0794 175.333 14.9999C175.333 15.9204 176.08 16.6666 177 16.6666Z" fill="#F5F2F5"/>
<path d="M209 0.5H191C190.724 0.5 190.5 0.723858 190.5 1V19C190.5 19.2761 190.724 19.5 191 19.5H209C209.276 19.5 209.5 19.2761 209.5 19V1C209.5 0.723858 209.276 0.5 209 0.5Z" stroke="#F5F2F5"/>
<path d="M195 6.66684C195.921 6.66684 196.667 5.92064 196.667 5.00017C196.667 4.07969 195.921 3.3335 195 3.3335C194.08 3.3335 193.333 4.07969 193.333 5.00017C193.333 5.92064 194.08 6.66684 195 6.66684Z" fill="#F5F2F5"/>
<path d="M199.997 11.6634C200.918 11.6634 201.664 10.9172 201.664 9.99675C201.664 9.07627 200.918 8.33008 199.997 8.33008C199.077 8.33008 198.331 9.07627 198.331 9.99675C198.331 10.9172 199.077 11.6634 199.997 11.6634Z" fill="#F5F2F5"/>
<path d="M205 16.6666C205.921 16.6666 206.667 15.9204 206.667 14.9999C206.667 14.0794 205.921 13.3333 205 13.3333C204.08 13.3333 203.333 14.0794 203.333 14.9999C203.333 15.9204 204.08 16.6666 205 16.6666Z" fill="#F5F2F5"/>
<path d="M181 28.5H163C162.724 28.5 162.5 28.7239 162.5 29V47C162.5 47.2761 162.724 47.5 163 47.5H181C181.276 47.5 181.5 47.2761 181.5 47V29C181.5 28.7239 181.276 28.5 181 28.5Z" stroke="#F5F2F5"/>
<path d="M167 34.6666C167.921 34.6666 168.667 33.9204 168.667 32.9999C168.667 32.0794 167.921 31.3333 167 31.3333C166.08 31.3333 165.333 32.0794 165.333 32.9999C165.333 33.9204 166.08 34.6666 167 34.6666Z" fill="#F5F2F5"/>
<path d="M167 44.6666C167.921 44.6666 168.667 43.9204 168.667 42.9999C168.667 42.0794 167.921 41.3333 167 41.3333C166.08 41.3333 165.333 42.0794 165.333 42.9999C165.333 43.9204 166.08 44.6666 167 44.6666Z" fill="#F5F2F5"/>
<path d="M177 44.6666C177.921 44.6666 178.667 43.9204 178.667 42.9999C178.667 42.0794 177.921 41.3333 177 41.3333C176.08 41.3333 175.333 42.0794 175.333 42.9999C175.333 43.9204 176.08 44.6666 177 44.6666Z" fill="#F5F2F5"/>
<path d="M177 34.6666C177.921 34.6666 178.667 33.9204 178.667 32.9999C178.667 32.0794 177.921 31.3333 177 31.3333C176.08 31.3333 175.333 32.0794 175.333 32.9999C175.333 33.9204 176.08 34.6666 177 34.6666Z" fill="#F5F2F5"/>
<path d="M209 28.5H191C190.724 28.5 190.5 28.7239 190.5 29V47C190.5 47.2761 190.724 47.5 191 47.5H209C209.276 47.5 209.5 47.2761 209.5 47V29C209.5 28.7239 209.276 28.5 209 28.5Z" stroke="#F5F2F5"/>
<path d="M195 34.6668C195.921 34.6668 196.667 33.9206 196.667 33.0002C196.667 32.0797 195.921 31.3335 195 31.3335C194.08 31.3335 193.333 32.0797 193.333 33.0002C193.333 33.9206 194.08 34.6668 195 34.6668Z" fill="#F5F2F5"/>
<path d="M194.997 39.6634C195.918 39.6634 196.664 38.9172 196.664 37.9967C196.664 37.0763 195.918 36.3301 194.997 36.3301C194.077 36.3301 193.331 37.0763 193.331 37.9967C193.331 38.9172 194.077 39.6634 194.997 39.6634Z" fill="#F5F2F5"/>
<path d="M204.997 39.6634C205.918 39.6634 206.664 38.9172 206.664 37.9967C206.664 37.0763 205.918 36.3301 204.997 36.3301C204.077 36.3301 203.331 37.0763 203.331 37.9967C203.331 38.9172 204.077 39.6634 204.997 39.6634Z" fill="#F5F2F5"/>
<path d="M195 44.6666C195.921 44.6666 196.667 43.9204 196.667 42.9999C196.667 42.0794 195.921 41.3333 195 41.3333C194.08 41.3333 193.333 42.0794 193.333 42.9999C193.333 43.9204 194.08 44.6666 195 44.6666Z" fill="#F5F2F5"/>
<path d="M205 44.6666C205.921 44.6666 206.667 43.9204 206.667 42.9999C206.667 42.0794 205.921 41.3333 205 41.3333C204.08 41.3333 203.333 42.0794 203.333 42.9999C203.333 43.9204 204.08 44.6666 205 44.6666Z" fill="#F5F2F5"/>
<path d="M205 34.6666C205.921 34.6666 206.667 33.9204 206.667 32.9999C206.667 32.0794 205.921 31.3333 205 31.3333C204.08 31.3333 203.333 32.0794 203.333 32.9999C203.333 33.9204 204.08 34.6666 205 34.6666Z" fill="#F5F2F5"/>
<path d="M23 28.5H5C4.72386 28.5 4.5 28.7239 4.5 29V47C4.5 47.2761 4.72386 47.5 5 47.5H23C23.2761 47.5 23.5 47.2761 23.5 47V29C23.5 28.7239 23.2761 28.5 23 28.5Z" stroke="#F5F2F5"/>
<path d="M13.9967 39.6634C14.9172 39.6634 15.6634 38.9172 15.6634 37.9967C15.6634 37.0763 14.9172 36.3301 13.9967 36.3301C13.0763 36.3301 12.3301 37.0763 12.3301 37.9967C12.3301 38.9172 13.0763 39.6634 13.9967 39.6634Z" fill="#F5F2F5"/>
<path d="M23 56.5H5C4.72386 56.5 4.5 56.7239 4.5 57V75C4.5 75.2761 4.72386 75.5 5 75.5H23C23.2761 75.5 23.5 75.2761 23.5 75V57C23.5 56.7239 23.2761 56.5 23 56.5Z" stroke="#F5F2F5"/>
<path d="M9.00017 62.6668C9.92064 62.6668 10.6668 61.9206 10.6668 61.0002C10.6668 60.0797 9.92064 59.3335 9.00017 59.3335C8.07969 59.3335 7.3335 60.0797 7.3335 61.0002C7.3335 61.9206 8.07969 62.6668 9.00017 62.6668Z" fill="#F5F2F5"/>
<path d="M19.0002 72.6666C19.9206 72.6666 20.6668 71.9204 20.6668 70.9999C20.6668 70.0794 19.9206 69.3333 19.0002 69.3333C18.0797 69.3333 17.3335 70.0794 17.3335 70.9999C17.3335 71.9204 18.0797 72.6666 19.0002 72.6666Z" fill="#F5F2F5"/>
<path d="M23 84.5H5C4.72386 84.5 4.5 84.7239 4.5 85V103C4.5 103.276 4.72386 103.5 5 103.5H23C23.2761 103.5 23.5 103.276 23.5 103V85C23.5 84.7239 23.2761 84.5 23 84.5Z" stroke="#F5F2F5"/>
<path d="M9.00017 90.6668C9.92064 90.6668 10.6668 89.9206 10.6668 89.0002C10.6668 88.0797 9.92064 87.3335 9.00017 87.3335C8.07969 87.3335 7.3335 88.0797 7.3335 89.0002C7.3335 89.9206 8.07969 90.6668 9.00017 90.6668Z" fill="#F5F2F5"/>
<path d="M13.9967 95.6634C14.9172 95.6634 15.6634 94.9172 15.6634 93.9967C15.6634 93.0763 14.9172 92.3301 13.9967 92.3301C13.0763 92.3301 12.3301 93.0763 12.3301 93.9967C12.3301 94.9172 13.0763 95.6634 13.9967 95.6634Z" fill="#F5F2F5"/>
<path d="M19.0002 100.667C19.9206 100.667 20.6668 99.9204 20.6668 98.9999C20.6668 98.0794 19.9206 97.3333 19.0002 97.3333C18.0797 97.3333 17.3335 98.0794 17.3335 98.9999C17.3335 99.9204 18.0797 100.667 19.0002 100.667Z" fill="#F5F2F5"/>
<path d="M30.9748 39.455L29.2448 37.025H29.6998C29.7465 37.025 29.7798 37.035 29.7998 37.055C29.8231 37.075 29.8431 37.0983 29.8598 37.125L31.3198 39.235C31.3331 39.1783 31.3615 39.1183 31.4048 39.055L32.7698 37.13C32.7865 37.1 32.8065 37.075 32.8298 37.055C32.8565 37.035 32.8865 37.025 32.9198 37.025H33.3598L31.6198 39.43L33.4298 42H32.9748C32.9281 42 32.8915 41.9867 32.8648 41.96C32.8381 41.93 32.8165 41.9017 32.7998 41.875L31.2898 39.675C31.2731 39.7417 31.2481 39.7983 31.2148 39.845L29.7648 41.885C29.7415 41.915 29.7165 41.9417 29.6898 41.965C29.6665 41.9883 29.6365 42 29.5998 42H29.1748L30.9748 39.455ZM37.0878 41.63H38.7128V35.89C38.7128 35.7767 38.7178 35.6567 38.7278 35.53L37.1678 36.915C37.1344 36.945 37.0944 36.96 37.0478 36.96C36.9911 36.96 36.9478 36.94 36.9178 36.9L36.7728 36.7L38.8178 34.895H39.1878V41.63H40.7328V42H37.0878V41.63Z" fill="white"/>
<path d="M30.9748 67.455L29.2448 65.025H29.6998C29.7465 65.025 29.7798 65.035 29.7998 65.055C29.8231 65.075 29.8431 65.0983 29.8598 65.125L31.3198 67.235C31.3331 67.1783 31.3615 67.1183 31.4048 67.055L32.7698 65.13C32.7865 65.1 32.8065 65.075 32.8298 65.055C32.8565 65.035 32.8865 65.025 32.9198 65.025H33.3598L31.6198 67.43L33.4298 70H32.9748C32.9281 70 32.8915 69.9867 32.8648 69.96C32.8381 69.93 32.8165 69.9017 32.7998 69.875L31.2898 67.675C31.2731 67.7417 31.2481 67.7983 31.2148 67.845L29.7648 69.885C29.7415 69.915 29.7165 69.9417 29.6898 69.965C29.6665 69.9883 29.6365 70 29.5998 70H29.1748L30.9748 67.455ZM37.0878 69.63H38.7128V63.89C38.7128 63.7767 38.7178 63.6567 38.7278 63.53L37.1678 64.915C37.1344 64.945 37.0944 64.96 37.0478 64.96C36.9911 64.96 36.9478 64.94 36.9178 64.9L36.7728 64.7L38.8178 62.895H39.1878V69.63H40.7328V70H37.0878V69.63Z" fill="white"/>
<path d="M30.9748 95.455L29.2448 93.025H29.6998C29.7465 93.025 29.7798 93.035 29.7998 93.055C29.8231 93.075 29.8431 93.0983 29.8598 93.125L31.3198 95.235C31.3331 95.1783 31.3615 95.1183 31.4048 95.055L32.7698 93.13C32.7865 93.1 32.8065 93.075 32.8298 93.055C32.8565 93.035 32.8865 93.025 32.9198 93.025H33.3598L31.6198 95.43L33.4298 98H32.9748C32.9281 98 32.8915 97.9867 32.8648 97.96C32.8381 97.93 32.8165 97.9017 32.7998 97.875L31.2898 95.675C31.2731 95.7417 31.2481 95.7983 31.2148 95.845L29.7648 97.885C29.7415 97.915 29.7165 97.9417 29.6898 97.965C29.6665 97.9883 29.6365 98 29.5998 98H29.1748L30.9748 95.455ZM38.6078 90.845C38.8778 90.845 39.1328 90.8833 39.3728 90.96C39.6128 91.0333 39.8228 91.145 40.0028 91.295C40.1861 91.445 40.3294 91.6317 40.4328 91.855C40.5394 92.0783 40.5928 92.3367 40.5928 92.63C40.5928 92.86 40.5561 93.0683 40.4828 93.255C40.4128 93.4383 40.3144 93.6 40.1878 93.74C40.0644 93.88 39.9178 93.9983 39.7478 94.095C39.5778 94.1883 39.3928 94.26 39.1928 94.31C39.7128 94.4067 40.1061 94.6083 40.3728 94.915C40.6394 95.2183 40.7728 95.5983 40.7728 96.055C40.7728 96.345 40.7144 96.615 40.5978 96.865C40.4811 97.1117 40.3211 97.325 40.1178 97.505C39.9144 97.685 39.6744 97.8267 39.3978 97.93C39.1211 98.03 38.8211 98.08 38.4978 98.08C38.0944 98.08 37.7578 98.0267 37.4878 97.92C37.2211 97.81 37.0011 97.6683 36.8278 97.495C36.6544 97.3217 36.5194 97.1283 36.4228 96.915C36.3261 96.6983 36.2478 96.4833 36.1878 96.27L36.3778 96.19C36.4178 96.1733 36.4561 96.165 36.4928 96.165C36.5294 96.165 36.5644 96.1733 36.5978 96.19C36.6311 96.2067 36.6561 96.2383 36.6728 96.285L36.7078 96.385C36.7278 96.445 36.7561 96.52 36.7928 96.61C36.8294 96.6967 36.8761 96.7883 36.9328 96.885C36.9928 96.9783 37.0661 97.0733 37.1528 97.17C37.2394 97.2633 37.3444 97.3483 37.4678 97.425C37.5944 97.4983 37.7411 97.5583 37.9078 97.605C38.0778 97.6517 38.2728 97.675 38.4928 97.675C38.7928 97.675 39.0544 97.625 39.2778 97.525C39.5044 97.425 39.6928 97.2983 39.8428 97.145C39.9961 96.9883 40.1094 96.815 40.1828 96.625C40.2594 96.4317 40.2978 96.245 40.2978 96.065C40.2978 95.8483 40.2628 95.6467 40.1928 95.46C40.1261 95.2733 40.0128 95.1133 39.8528 94.98C39.6928 94.8433 39.4811 94.7367 39.2178 94.66C38.9578 94.58 38.6361 94.54 38.2528 94.54V94.195C38.5594 94.1883 38.8294 94.1483 39.0628 94.075C39.2961 93.9983 39.4911 93.895 39.6478 93.765C39.8044 93.635 39.9228 93.48 40.0028 93.3C40.0828 93.12 40.1228 92.9217 40.1228 92.705C40.1228 92.455 40.0811 92.2383 39.9978 92.055C39.9144 91.8717 39.8028 91.72 39.6628 91.6C39.5228 91.48 39.3594 91.3917 39.1728 91.335C38.9861 91.2783 38.7911 91.25 38.5878 91.25C38.3644 91.25 38.1594 91.2833 37.9728 91.35C37.7861 91.4167 37.6211 91.51 37.4778 91.63C37.3344 91.75 37.2144 91.895 37.1178 92.065C37.0211 92.2317 36.9494 92.4183 36.9028 92.625C36.8761 92.7417 36.8144 92.8 36.7178 92.8C36.6944 92.8 36.6761 92.7983 36.6628 92.795L36.4178 92.755C36.4611 92.4517 36.5444 92.1817 36.6678 91.945C36.7911 91.7083 36.9478 91.5083 37.1378 91.345C37.3278 91.1817 37.5478 91.0583 37.7978 90.975C38.0478 90.8883 38.3178 90.845 38.6078 90.845Z" fill="white"/>
<path d="M70 28.5H52C51.7239 28.5 51.5 28.7239 51.5 29V47C51.5 47.2761 51.7239 47.5 52 47.5H70C70.2761 47.5 70.5 47.2761 70.5 47V29C70.5 28.7239 70.2761 28.5 70 28.5Z" stroke="#F5F2F5"/>
<path d="M56.0002 34.6666C56.9206 34.6666 57.6668 33.9204 57.6668 32.9999C57.6668 32.0794 56.9206 31.3333 56.0002 31.3333C55.0797 31.3333 54.3335 32.0794 54.3335 32.9999C54.3335 33.9204 55.0797 34.6666 56.0002 34.6666Z" fill="#F5F2F5"/>
<path d="M56.0002 44.6666C56.9206 44.6666 57.6668 43.9204 57.6668 42.9999C57.6668 42.0794 56.9206 41.3333 56.0002 41.3333C55.0797 41.3333 54.3335 42.0794 54.3335 42.9999C54.3335 43.9204 55.0797 44.6666 56.0002 44.6666Z" fill="#F5F2F5"/>
<path d="M66.0002 44.6666C66.9206 44.6666 67.6668 43.9204 67.6668 42.9999C67.6668 42.0794 66.9206 41.3333 66.0002 41.3333C65.0797 41.3333 64.3335 42.0794 64.3335 42.9999C64.3335 43.9204 65.0797 44.6666 66.0002 44.6666Z" fill="#F5F2F5"/>
<path d="M66.0002 34.6666C66.9206 34.6666 67.6668 33.9204 67.6668 32.9999C67.6668 32.0794 66.9206 31.3333 66.0002 31.3333C65.0797 31.3333 64.3335 32.0794 64.3335 32.9999C64.3335 33.9204 65.0797 34.6666 66.0002 34.6666Z" fill="#F5F2F5"/>
<path d="M70 56.5H52C51.7239 56.5 51.5 56.7239 51.5 57V75C51.5 75.2761 51.7239 75.5 52 75.5H70C70.2761 75.5 70.5 75.2761 70.5 75V57C70.5 56.7239 70.2761 56.5 70 56.5Z" stroke="#F5F2F5"/>
<path d="M56.0002 62.6668C56.9206 62.6668 57.6668 61.9206 57.6668 61.0002C57.6668 60.0797 56.9206 59.3335 56.0002 59.3335C55.0797 59.3335 54.3335 60.0797 54.3335 61.0002C54.3335 61.9206 55.0797 62.6668 56.0002 62.6668Z" fill="#F5F2F5"/>
<path d="M60.9967 67.6634C61.9172 67.6634 62.6634 66.9172 62.6634 65.9967C62.6634 65.0763 61.9172 64.3301 60.9967 64.3301C60.0763 64.3301 59.3301 65.0763 59.3301 65.9967C59.3301 66.9172 60.0763 67.6634 60.9967 67.6634Z" fill="#F5F2F5"/>
<path d="M56.0002 72.6666C56.9206 72.6666 57.6668 71.9204 57.6668 70.9999C57.6668 70.0794 56.9206 69.3333 56.0002 69.3333C55.0797 69.3333 54.3335 70.0794 54.3335 70.9999C54.3335 71.9204 55.0797 72.6666 56.0002 72.6666Z" fill="#F5F2F5"/>
<path d="M66.0002 72.6666C66.9206 72.6666 67.6668 71.9204 67.6668 70.9999C67.6668 70.0794 66.9206 69.3333 66.0002 69.3333C65.0797 69.3333 64.3335 70.0794 64.3335 70.9999C64.3335 71.9204 65.0797 72.6666 66.0002 72.6666Z" fill="#F5F2F5"/>
<path d="M66.0002 62.6666C66.9206 62.6666 67.6668 61.9204 67.6668 60.9999C67.6668 60.0794 66.9206 59.3333 66.0002 59.3333C65.0797 59.3333 64.3335 60.0794 64.3335 60.9999C64.3335 61.9204 65.0797 62.6666 66.0002 62.6666Z" fill="#F5F2F5"/>
<path d="M70 84.5H52C51.7239 84.5 51.5 84.7239 51.5 85V103C51.5 103.276 51.7239 103.5 52 103.5H70C70.2761 103.5 70.5 103.276 70.5 103V85C70.5 84.7239 70.2761 84.5 70 84.5Z" stroke="#F5F2F5"/>
<path d="M56.0002 90.6668C56.9206 90.6668 57.6668 89.9206 57.6668 89.0002C57.6668 88.0797 56.9206 87.3335 56.0002 87.3335C55.0797 87.3335 54.3335 88.0797 54.3335 89.0002C54.3335 89.9206 55.0797 90.6668 56.0002 90.6668Z" fill="#F5F2F5"/>
<path d="M55.9967 95.6634C56.9172 95.6634 57.6634 94.9172 57.6634 93.9967C57.6634 93.0763 56.9172 92.3301 55.9967 92.3301C55.0763 92.3301 54.3301 93.0763 54.3301 93.9967C54.3301 94.9172 55.0763 95.6634 55.9967 95.6634Z" fill="#F5F2F5"/>
<path d="M65.9967 95.6634C66.9172 95.6634 67.6634 94.9172 67.6634 93.9967C67.6634 93.0763 66.9172 92.3301 65.9967 92.3301C65.0763 92.3301 64.3301 93.0763 64.3301 93.9967C64.3301 94.9172 65.0763 95.6634 65.9967 95.6634Z" fill="#F5F2F5"/>
<path d="M56.0002 100.667C56.9206 100.667 57.6668 99.9204 57.6668 98.9999C57.6668 98.0794 56.9206 97.3333 56.0002 97.3333C55.0797 97.3333 54.3335 98.0794 54.3335 98.9999C54.3335 99.9204 55.0797 100.667 56.0002 100.667Z" fill="#F5F2F5"/>
<path d="M66.0002 100.667C66.9206 100.667 67.6668 99.9204 67.6668 98.9999C67.6668 98.0794 66.9206 97.3333 66.0002 97.3333C65.0797 97.3333 64.3335 98.0794 64.3335 98.9999C64.3335 99.9204 65.0797 100.667 66.0002 100.667Z" fill="#F5F2F5"/>
<path d="M66.0002 90.6666C66.9206 90.6666 67.6668 89.9204 67.6668 88.9999C67.6668 88.0794 66.9206 87.3333 66.0002 87.3333C65.0797 87.3333 64.3335 88.0794 64.3335 88.9999C64.3335 89.9204 65.0797 90.6666 66.0002 90.6666Z" fill="#F5F2F5"/>
<path d="M77.9748 39.455L76.2448 37.025H76.6998C76.7465 37.025 76.7798 37.035 76.7998 37.055C76.8231 37.075 76.8431 37.0983 76.8598 37.125L78.3198 39.235C78.3331 39.1783 78.3615 39.1183 78.4048 39.055L79.7698 37.13C79.7865 37.1 79.8065 37.075 79.8298 37.055C79.8565 37.035 79.8865 37.025 79.9198 37.025H80.3598L78.6198 39.43L80.4298 42H79.9748C79.9281 42 79.8915 41.9867 79.8648 41.96C79.8381 41.93 79.8165 41.9017 79.7998 41.875L78.2898 39.675C78.2731 39.7417 78.2481 39.7983 78.2148 39.845L76.7648 41.885C76.7415 41.915 76.7165 41.9417 76.6898 41.965C76.6665 41.9883 76.6365 42 76.5998 42H76.1748L77.9748 39.455ZM85.6078 34.845C85.8778 34.845 86.1328 34.8833 86.3728 34.96C86.6128 35.0333 86.8228 35.145 87.0028 35.295C87.1861 35.445 87.3294 35.6317 87.4328 35.855C87.5394 36.0783 87.5928 36.3367 87.5928 36.63C87.5928 36.86 87.5561 37.0683 87.4828 37.255C87.4128 37.4383 87.3144 37.6 87.1878 37.74C87.0644 37.88 86.9178 37.9983 86.7478 38.095C86.5778 38.1883 86.3928 38.26 86.1928 38.31C86.7128 38.4067 87.1061 38.6083 87.3728 38.915C87.6394 39.2183 87.7728 39.5983 87.7728 40.055C87.7728 40.345 87.7144 40.615 87.5978 40.865C87.4811 41.1117 87.3211 41.325 87.1178 41.505C86.9144 41.685 86.6744 41.8267 86.3978 41.93C86.1211 42.03 85.8211 42.08 85.4978 42.08C85.0944 42.08 84.7578 42.0267 84.4878 41.92C84.2211 41.81 84.0011 41.6683 83.8278 41.495C83.6544 41.3217 83.5194 41.1283 83.4228 40.915C83.3261 40.6983 83.2478 40.4833 83.1878 40.27L83.3778 40.19C83.4178 40.1733 83.4561 40.165 83.4928 40.165C83.5294 40.165 83.5644 40.1733 83.5978 40.19C83.6311 40.2067 83.6561 40.2383 83.6728 40.285L83.7078 40.385C83.7278 40.445 83.7561 40.52 83.7928 40.61C83.8294 40.6967 83.8761 40.7883 83.9328 40.885C83.9928 40.9783 84.0661 41.0733 84.1528 41.17C84.2394 41.2633 84.3444 41.3483 84.4678 41.425C84.5944 41.4983 84.7411 41.5583 84.9078 41.605C85.0778 41.6517 85.2728 41.675 85.4928 41.675C85.7928 41.675 86.0544 41.625 86.2778 41.525C86.5044 41.425 86.6928 41.2983 86.8428 41.145C86.9961 40.9883 87.1094 40.815 87.1828 40.625C87.2594 40.4317 87.2978 40.245 87.2978 40.065C87.2978 39.8483 87.2628 39.6467 87.1928 39.46C87.1261 39.2733 87.0128 39.1133 86.8528 38.98C86.6928 38.8433 86.4811 38.7367 86.2178 38.66C85.9578 38.58 85.6361 38.54 85.2528 38.54V38.195C85.5594 38.1883 85.8294 38.1483 86.0628 38.075C86.2961 37.9983 86.4911 37.895 86.6478 37.765C86.8044 37.635 86.9228 37.48 87.0028 37.3C87.0828 37.12 87.1228 36.9217 87.1228 36.705C87.1228 36.455 87.0811 36.2383 86.9978 36.055C86.9144 35.8717 86.8028 35.72 86.6628 35.6C86.5228 35.48 86.3594 35.3917 86.1728 35.335C85.9861 35.2783 85.7911 35.25 85.5878 35.25C85.3644 35.25 85.1594 35.2833 84.9728 35.35C84.7861 35.4167 84.6211 35.51 84.4778 35.63C84.3344 35.75 84.2144 35.895 84.1178 36.065C84.0211 36.2317 83.9494 36.4183 83.9028 36.625C83.8761 36.7417 83.8144 36.8 83.7178 36.8C83.6944 36.8 83.6761 36.7983 83.6628 36.795L83.4178 36.755C83.4611 36.4517 83.5444 36.1817 83.6678 35.945C83.7911 35.7083 83.9478 35.5083 84.1378 35.345C84.3278 35.1817 84.5478 35.0583 84.7978 34.975C85.0478 34.8883 85.3178 34.845 85.6078 34.845Z" fill="white"/>
<path d="M77.9748 67.455L76.2448 65.025H76.6998C76.7465 65.025 76.7798 65.035 76.7998 65.055C76.8231 65.075 76.8431 65.0983 76.8598 65.125L78.3198 67.235C78.3331 67.1783 78.3615 67.1183 78.4048 67.055L79.7698 65.13C79.7865 65.1 79.8065 65.075 79.8298 65.055C79.8565 65.035 79.8865 65.025 79.9198 65.025H80.3598L78.6198 67.43L80.4298 70H79.9748C79.9281 70 79.8915 69.9867 79.8648 69.96C79.8381 69.93 79.8165 69.9017 79.7998 69.875L78.2898 67.675C78.2731 67.7417 78.2481 67.7983 78.2148 67.845L76.7648 69.885C76.7415 69.915 76.7165 69.9417 76.6898 69.965C76.6665 69.9883 76.6365 70 76.5998 70H76.1748L77.9748 67.455ZM85.5528 62.845C85.8228 62.845 86.0794 62.885 86.3228 62.965C86.5694 63.0417 86.7861 63.16 86.9728 63.32C87.1594 63.4767 87.3078 63.675 87.4178 63.915C87.5278 64.1517 87.5828 64.43 87.5828 64.75C87.5828 65.0167 87.5411 65.265 87.4578 65.495C87.3778 65.7217 87.2678 65.94 87.1278 66.15C86.9878 66.36 86.8244 66.565 86.6378 66.765C86.4544 66.9617 86.2611 67.1633 86.0578 67.37L83.8428 69.63C83.9494 69.6033 84.0594 69.5833 84.1728 69.57C84.2894 69.5567 84.4061 69.55 84.5228 69.55H87.5778C87.6311 69.55 87.6728 69.5667 87.7028 69.6C87.7361 69.63 87.7528 69.67 87.7528 69.72V70H83.1878V69.83C83.1878 69.7933 83.1961 69.7567 83.2128 69.72C83.2328 69.68 83.2561 69.6467 83.2828 69.62L85.6978 67.175C85.8978 66.9717 86.0828 66.775 86.2528 66.585C86.4228 66.395 86.5694 66.2033 86.6928 66.01C86.8194 65.8167 86.9178 65.6183 86.9878 65.415C87.0611 65.2117 87.0978 64.995 87.0978 64.765C87.0978 64.505 87.0544 64.28 86.9678 64.09C86.8811 63.8967 86.7644 63.7383 86.6178 63.615C86.4744 63.4917 86.3078 63.4 86.1178 63.34C85.9311 63.28 85.7344 63.25 85.5278 63.25C85.3044 63.25 85.0978 63.285 84.9078 63.355C84.7211 63.4217 84.5544 63.5167 84.4078 63.64C84.2644 63.76 84.1444 63.905 84.0478 64.075C83.9544 64.2417 83.8894 64.425 83.8528 64.625C83.8194 64.7417 83.7528 64.8 83.6528 64.8C83.6461 64.8 83.6378 64.8 83.6278 64.8C83.6178 64.7967 83.6094 64.795 83.6028 64.795L83.3628 64.755C83.4028 64.4517 83.4844 64.1817 83.6078 63.945C83.7344 63.7083 83.8928 63.5083 84.0828 63.345C84.2728 63.1817 84.4928 63.0583 84.7428 62.975C84.9928 62.8883 85.2628 62.845 85.5528 62.845Z" fill="white"/>
<path d="M77.9748 95.455L76.2448 93.025H76.6998C76.7465 93.025 76.7798 93.035 76.7998 93.055C76.8231 93.075 76.8431 93.0983 76.8598 93.125L78.3198 95.235C78.3331 95.1783 78.3615 95.1183 78.4048 95.055L79.7698 93.13C79.7865 93.1 79.8065 93.075 79.8298 93.055C79.8565 93.035 79.8865 93.025 79.9198 93.025H80.3598L78.6198 95.43L80.4298 98H79.9748C79.9281 98 79.8915 97.9867 79.8648 97.96C79.8381 97.93 79.8165 97.9017 79.7998 97.875L78.2898 95.675C78.2731 95.7417 78.2481 95.7983 78.2148 95.845L76.7648 97.885C76.7415 97.915 76.7165 97.9417 76.6898 97.965C76.6665 97.9883 76.6365 98 76.5998 98H76.1748L77.9748 95.455ZM85.5528 90.845C85.8228 90.845 86.0794 90.885 86.3228 90.965C86.5694 91.0417 86.7861 91.16 86.9728 91.32C87.1594 91.4767 87.3078 91.675 87.4178 91.915C87.5278 92.1517 87.5828 92.43 87.5828 92.75C87.5828 93.0167 87.5411 93.265 87.4578 93.495C87.3778 93.7217 87.2678 93.94 87.1278 94.15C86.9878 94.36 86.8244 94.565 86.6378 94.765C86.4544 94.9617 86.2611 95.1633 86.0578 95.37L83.8428 97.63C83.9494 97.6033 84.0594 97.5833 84.1728 97.57C84.2894 97.5567 84.4061 97.55 84.5228 97.55H87.5778C87.6311 97.55 87.6728 97.5667 87.7028 97.6C87.7361 97.63 87.7528 97.67 87.7528 97.72V98H83.1878V97.83C83.1878 97.7933 83.1961 97.7567 83.2128 97.72C83.2328 97.68 83.2561 97.6467 83.2828 97.62L85.6978 95.175C85.8978 94.9717 86.0828 94.775 86.2528 94.585C86.4228 94.395 86.5694 94.2033 86.6928 94.01C86.8194 93.8167 86.9178 93.6183 86.9878 93.415C87.0611 93.2117 87.0978 92.995 87.0978 92.765C87.0978 92.505 87.0544 92.28 86.9678 92.09C86.8811 91.8967 86.7644 91.7383 86.6178 91.615C86.4744 91.4917 86.3078 91.4 86.1178 91.34C85.9311 91.28 85.7344 91.25 85.5278 91.25C85.3044 91.25 85.0978 91.285 84.9078 91.355C84.7211 91.4217 84.5544 91.5167 84.4078 91.64C84.2644 91.76 84.1444 91.905 84.0478 92.075C83.9544 92.2417 83.8894 92.425 83.8528 92.625C83.8194 92.7417 83.7528 92.8 83.6528 92.8C83.6461 92.8 83.6378 92.8 83.6278 92.8C83.6178 92.7967 83.6094 92.795 83.6028 92.795L83.3628 92.755C83.4028 92.4517 83.4844 92.1817 83.6078 91.945C83.7344 91.7083 83.8928 91.5083 84.0828 91.345C84.2728 91.1817 84.4928 91.0583 84.7428 90.975C84.9928 90.8883 85.2628 90.845 85.5528 90.845Z" fill="white"/>
<path d="M18.8254 2.9251V3.3601H16.3404V10.0001H15.8304V3.3601H13.3304V2.9251H18.8254ZM20.6358 4.9451C20.9924 4.9451 21.3108 5.00677 21.5908 5.1301C21.8741 5.2501 22.1124 5.42177 22.3058 5.6451C22.4991 5.86843 22.6458 6.13843 22.7458 6.4551C22.8491 6.76843 22.9008 7.1201 22.9008 7.5101C22.9008 7.9001 22.8491 8.25177 22.7458 8.5651C22.6458 8.87843 22.4991 9.14677 22.3058 9.3701C22.1124 9.59343 21.8741 9.7651 21.5908 9.8851C21.3108 10.0051 20.9924 10.0651 20.6358 10.0651C20.2791 10.0651 19.9591 10.0051 19.6758 9.8851C19.3958 9.7651 19.1574 9.59343 18.9608 9.3701C18.7674 9.14677 18.6191 8.87843 18.5158 8.5651C18.4158 8.25177 18.3658 7.9001 18.3658 7.5101C18.3658 7.1201 18.4158 6.76843 18.5158 6.4551C18.6191 6.13843 18.7674 5.86843 18.9608 5.6451C19.1574 5.42177 19.3958 5.2501 19.6758 5.1301C19.9591 5.00677 20.2791 4.9451 20.6358 4.9451ZM20.6358 9.6901C20.9324 9.6901 21.1908 9.6401 21.4108 9.5401C21.6341 9.43677 21.8191 9.2901 21.9658 9.1001C22.1158 8.9101 22.2274 8.68177 22.3008 8.4151C22.3741 8.1451 22.4108 7.84343 22.4108 7.5101C22.4108 7.1801 22.3741 6.8801 22.3008 6.6101C22.2274 6.3401 22.1158 6.1101 21.9658 5.9201C21.8191 5.72677 21.6341 5.57843 21.4108 5.4751C21.1908 5.37177 20.9324 5.3201 20.6358 5.3201C20.3391 5.3201 20.0791 5.37177 19.8558 5.4751C19.6358 5.57843 19.4508 5.72677 19.3008 5.9201C19.1541 6.1101 19.0424 6.3401 18.9658 6.6101C18.8924 6.8801 18.8558 7.1801 18.8558 7.5101C18.8558 7.84343 18.8924 8.1451 18.9658 8.4151C19.0424 8.68177 19.1541 8.9101 19.3008 9.1001C19.4508 9.2901 19.6358 9.43677 19.8558 9.5401C20.0791 9.6401 20.3391 9.6901 20.6358 9.6901ZM25.5109 10.0801C25.1743 10.0801 24.9109 9.98677 24.7209 9.8001C24.5343 9.61343 24.4409 9.3251 24.4409 8.9351V5.5351H23.7259C23.6893 5.5351 23.6593 5.5251 23.6359 5.5051C23.6126 5.4851 23.6009 5.45677 23.6009 5.4201V5.2351L24.4509 5.1751L24.5709 3.3951C24.5743 3.3651 24.5859 3.33843 24.6059 3.3151C24.6293 3.29177 24.6593 3.2801 24.6959 3.2801H24.9209V5.1801H26.4859V5.5351H24.9209V8.9101C24.9209 9.04677 24.9376 9.1651 24.9709 9.2651C25.0076 9.36177 25.0559 9.44177 25.1159 9.5051C25.1793 9.56843 25.2526 9.6151 25.3359 9.6451C25.4193 9.6751 25.5093 9.6901 25.6059 9.6901C25.7259 9.6901 25.8293 9.67343 25.9159 9.6401C26.0026 9.60343 26.0776 9.5651 26.1409 9.5251C26.2043 9.48177 26.2559 9.44343 26.2959 9.4101C26.3359 9.37343 26.3676 9.3551 26.3909 9.3551C26.4176 9.3551 26.4443 9.37177 26.4709 9.4051L26.6009 9.6151C26.4743 9.7551 26.3126 9.86843 26.1159 9.9551C25.9226 10.0384 25.7209 10.0801 25.5109 10.0801ZM30.8904 10.0001C30.7904 10.0001 30.7287 9.95343 30.7054 9.8601L30.6354 9.2251C30.4987 9.35843 30.362 9.47843 30.2254 9.5851C30.092 9.69177 29.952 9.78177 29.8054 9.8551C29.6587 9.92843 29.5004 9.98343 29.3304 10.0201C29.1604 10.0601 28.9737 10.0801 28.7704 10.0801C28.6004 10.0801 28.4354 10.0551 28.2754 10.0051C28.1154 9.9551 27.9737 9.87843 27.8504 9.7751C27.727 9.67177 27.627 9.5401 27.5504 9.3801C27.477 9.21677 27.4404 9.02177 27.4404 8.7951C27.4404 8.5851 27.5004 8.3901 27.6204 8.2101C27.7404 8.0301 27.927 7.87343 28.1804 7.7401C28.437 7.60677 28.7654 7.5001 29.1654 7.4201C29.5687 7.3401 30.052 7.29343 30.6154 7.2801V6.7601C30.6154 6.3001 30.5154 5.94677 30.3154 5.7001C30.1187 5.4501 29.8254 5.3251 29.4354 5.3251C29.1954 5.3251 28.9904 5.35843 28.8204 5.4251C28.6537 5.49177 28.512 5.5651 28.3954 5.6451C28.2787 5.7251 28.1837 5.79843 28.1104 5.8651C28.037 5.93177 27.9754 5.9651 27.9254 5.9651C27.8587 5.9651 27.8087 5.9351 27.7754 5.8751L27.6904 5.7301C27.9504 5.4701 28.2237 5.27343 28.5104 5.1401C28.797 5.00677 29.122 4.9401 29.4854 4.9401C29.752 4.9401 29.9854 4.98343 30.1854 5.0701C30.3854 5.15343 30.5504 5.2751 30.6804 5.4351C30.8137 5.59177 30.9137 5.78343 30.9804 6.0101C31.047 6.23343 31.0804 6.48343 31.0804 6.7601V10.0001H30.8904ZM28.8904 9.7351C29.0837 9.7351 29.2604 9.7151 29.4204 9.6751C29.5837 9.63177 29.7337 9.57343 29.8704 9.5001C30.0104 9.42343 30.1404 9.33343 30.2604 9.2301C30.3804 9.12677 30.4987 9.0151 30.6154 8.8951V7.6001C30.142 7.61343 29.7337 7.6501 29.3904 7.7101C29.0504 7.76677 28.7687 7.8451 28.5454 7.9451C28.3254 8.0451 28.162 8.1651 28.0554 8.3051C27.952 8.44177 27.9004 8.59843 27.9004 8.7751C27.9004 8.94177 27.927 9.08677 27.9804 9.2101C28.037 9.3301 28.1104 9.4301 28.2004 9.5101C28.2904 9.58677 28.3954 9.64343 28.5154 9.6801C28.6354 9.71677 28.7604 9.7351 28.8904 9.7351ZM33.1937 2.7251V10.0001H32.7187V2.7251H33.1937ZM40.4103 10.0001C40.327 10.0001 40.2786 9.95677 40.2653 9.8701L40.2153 9.0851C39.9953 9.3851 39.737 9.62343 39.4403 9.8001C39.147 9.97677 38.817 10.0651 38.4503 10.0651C37.8403 10.0651 37.3636 9.85343 37.0203 9.4301C36.6803 9.00677 36.5103 8.37177 36.5103 7.5251C36.5103 7.16177 36.557 6.82343 36.6503 6.5101C36.747 6.19343 36.887 5.9201 37.0703 5.6901C37.257 5.45677 37.4836 5.27343 37.7503 5.1401C38.0203 5.00677 38.3303 4.9401 38.6803 4.9401C39.017 4.9401 39.3086 5.00343 39.5553 5.1301C39.802 5.25343 40.0153 5.4351 40.1953 5.6751V2.7251H40.6753V10.0001H40.4103ZM38.5853 9.6801C38.9153 9.6801 39.2136 9.5951 39.4803 9.4251C39.747 9.2551 39.9853 9.01843 40.1953 8.7151V6.0901C40.002 5.80677 39.7886 5.60677 39.5553 5.4901C39.3253 5.37343 39.0636 5.3151 38.7703 5.3151C38.477 5.3151 38.2203 5.36843 38.0003 5.4751C37.7803 5.58177 37.5953 5.73343 37.4453 5.9301C37.2986 6.12343 37.187 6.35677 37.1103 6.6301C37.037 6.9001 37.0003 7.19843 37.0003 7.5251C37.0003 8.2651 37.137 8.8101 37.4103 9.1601C37.6836 9.50677 38.0753 9.6801 38.5853 9.6801ZM42.9593 5.0251V10.0001H42.4843V5.0251H42.9593ZM43.1693 3.3101C43.1693 3.3701 43.1559 3.42677 43.1293 3.4801C43.1059 3.5301 43.0743 3.5751 43.0343 3.6151C42.9943 3.6551 42.9476 3.68677 42.8943 3.7101C42.8409 3.73343 42.7843 3.7451 42.7243 3.7451C42.6643 3.7451 42.6076 3.73343 42.5543 3.7101C42.5009 3.68677 42.4543 3.6551 42.4143 3.6151C42.3743 3.5751 42.3426 3.5301 42.3193 3.4801C42.2959 3.42677 42.2843 3.3701 42.2843 3.3101C42.2843 3.2501 42.2959 3.19343 42.3193 3.1401C42.3426 3.08343 42.3743 3.0351 42.4143 2.9951C42.4543 2.9551 42.5009 2.92343 42.5543 2.9001C42.6076 2.87677 42.6643 2.8651 42.7243 2.8651C42.7843 2.8651 42.8409 2.87677 42.8943 2.9001C42.9476 2.92343 42.9943 2.9551 43.0343 2.9951C43.0743 3.0351 43.1059 3.08343 43.1293 3.1401C43.1559 3.19343 43.1693 3.2501 43.1693 3.3101ZM47.9923 5.6901C47.9757 5.70677 47.959 5.72177 47.9423 5.7351C47.929 5.7451 47.909 5.7501 47.8823 5.7501C47.849 5.7501 47.8023 5.72843 47.7423 5.6851C47.6857 5.63843 47.609 5.58843 47.5123 5.5351C47.4157 5.48177 47.294 5.43343 47.1473 5.3901C47.004 5.34343 46.829 5.3201 46.6223 5.3201C46.3357 5.3201 46.0807 5.37177 45.8573 5.4751C45.6373 5.5751 45.4507 5.7201 45.2973 5.9101C45.1473 6.1001 45.0323 6.3301 44.9523 6.6001C44.8723 6.8701 44.8323 7.17343 44.8323 7.5101C44.8323 7.8601 44.8723 8.1701 44.9523 8.4401C45.0357 8.7101 45.1523 8.93843 45.3023 9.1251C45.4523 9.30843 45.634 9.44843 45.8473 9.5451C46.0607 9.64177 46.2973 9.6901 46.5573 9.6901C46.7973 9.6901 46.9973 9.66177 47.1573 9.6051C47.3207 9.54843 47.454 9.48677 47.5573 9.4201C47.664 9.35343 47.7473 9.29177 47.8073 9.2351C47.8707 9.17843 47.9207 9.1501 47.9573 9.1501C48.0007 9.1501 48.034 9.16677 48.0573 9.2001L48.1873 9.3601C48.1107 9.4601 48.014 9.55343 47.8973 9.6401C47.7807 9.72677 47.649 9.80177 47.5023 9.8651C47.3557 9.92843 47.1957 9.97677 47.0223 10.0101C46.8523 10.0468 46.674 10.0651 46.4873 10.0651C46.1707 10.0651 45.8807 10.0084 45.6173 9.8951C45.3573 9.77843 45.1323 9.61177 44.9423 9.3951C44.7557 9.1751 44.609 8.90677 44.5023 8.5901C44.399 8.27343 44.3473 7.91343 44.3473 7.5101C44.3473 7.1301 44.3973 6.78343 44.4973 6.4701C44.5973 6.15677 44.7423 5.88677 44.9323 5.6601C45.1257 5.43343 45.3607 5.25843 45.6373 5.1351C45.9173 5.00843 46.2373 4.9451 46.5973 4.9451C46.9207 4.9451 47.2073 4.99677 47.4573 5.1001C47.7107 5.20343 47.9307 5.34343 48.1173 5.5201L47.9923 5.6901ZM51.1431 4.9451C51.4231 4.9451 51.6814 4.99343 51.9181 5.0901C52.1581 5.18677 52.3648 5.32843 52.5381 5.5151C52.7148 5.69843 52.8514 5.9251 52.9481 6.1951C53.0481 6.4651 53.0981 6.7751 53.0981 7.1251C53.0981 7.19843 53.0864 7.24843 53.0631 7.2751C53.0431 7.30177 53.0098 7.3151 52.9631 7.3151H49.3681V7.4101C49.3681 7.78343 49.4114 8.11177 49.4981 8.3951C49.5848 8.67843 49.7081 8.91677 49.8681 9.1101C50.0281 9.3001 50.2214 9.44343 50.4481 9.5401C50.6748 9.63677 50.9281 9.6851 51.2081 9.6851C51.4581 9.6851 51.6748 9.65843 51.8581 9.6051C52.0414 9.54843 52.1948 9.48677 52.3181 9.4201C52.4448 9.3501 52.5448 9.28843 52.6181 9.2351C52.6914 9.17843 52.7448 9.1501 52.7781 9.1501C52.8214 9.1501 52.8548 9.16677 52.8781 9.2001L53.0081 9.3601C52.9281 9.4601 52.8214 9.55343 52.6881 9.6401C52.5581 9.72677 52.4114 9.80177 52.2481 9.8651C52.0881 9.9251 51.9148 9.97343 51.7281 10.0101C51.5448 10.0468 51.3598 10.0651 51.1731 10.0651C50.8331 10.0651 50.5231 10.0068 50.2431 9.8901C49.9631 9.7701 49.7231 9.59677 49.5231 9.3701C49.3231 9.14343 49.1681 8.86677 49.0581 8.5401C48.9514 8.2101 48.8981 7.83343 48.8981 7.4101C48.8981 7.05343 48.9481 6.7251 49.0481 6.4251C49.1514 6.12177 49.2981 5.86177 49.4881 5.6451C49.6814 5.4251 49.9164 5.25343 50.1931 5.1301C50.4731 5.00677 50.7898 4.9451 51.1431 4.9451ZM51.1481 5.3001C50.8914 5.3001 50.6614 5.3401 50.4581 5.4201C50.2548 5.5001 50.0781 5.6151 49.9281 5.7651C49.7814 5.9151 49.6614 6.0951 49.5681 6.3051C49.4781 6.5151 49.4181 6.7501 49.3881 7.0101H52.6681C52.6681 6.74343 52.6314 6.5051 52.5581 6.2951C52.4848 6.08177 52.3814 5.90177 52.2481 5.7551C52.1148 5.60843 51.9548 5.49677 51.7681 5.4201C51.5814 5.3401 51.3748 5.3001 51.1481 5.3001ZM59.5841 5.6901C59.5675 5.70677 59.5508 5.72177 59.5341 5.7351C59.5208 5.7451 59.5008 5.7501 59.4741 5.7501C59.4408 5.7501 59.3941 5.72843 59.3341 5.6851C59.2775 5.63843 59.2008 5.58843 59.1041 5.5351C59.0075 5.48177 58.8858 5.43343 58.7391 5.3901C58.5958 5.34343 58.4208 5.3201 58.2141 5.3201C57.9275 5.3201 57.6725 5.37177 57.4491 5.4751C57.2291 5.5751 57.0425 5.7201 56.8891 5.9101C56.7391 6.1001 56.6241 6.3301 56.5441 6.6001C56.4641 6.8701 56.4241 7.17343 56.4241 7.5101C56.4241 7.8601 56.4641 8.1701 56.5441 8.4401C56.6275 8.7101 56.7441 8.93843 56.8941 9.1251C57.0441 9.30843 57.2258 9.44843 57.4391 9.5451C57.6525 9.64177 57.8891 9.6901 58.1491 9.6901C58.3891 9.6901 58.5891 9.66177 58.7491 9.6051C58.9125 9.54843 59.0458 9.48677 59.1491 9.4201C59.2558 9.35343 59.3391 9.29177 59.3991 9.2351C59.4625 9.17843 59.5125 9.1501 59.5491 9.1501C59.5925 9.1501 59.6258 9.16677 59.6491 9.2001L59.7791 9.3601C59.7025 9.4601 59.6058 9.55343 59.4891 9.6401C59.3725 9.72677 59.2408 9.80177 59.0941 9.8651C58.9475 9.92843 58.7875 9.97677 58.6141 10.0101C58.4441 10.0468 58.2658 10.0651 58.0791 10.0651C57.7625 10.0651 57.4725 10.0084 57.2091 9.8951C56.9491 9.77843 56.7241 9.61177 56.5341 9.3951C56.3475 9.1751 56.2008 8.90677 56.0941 8.5901C55.9908 8.27343 55.9391 7.91343 55.9391 7.5101C55.9391 7.1301 55.9891 6.78343 56.0891 6.4701C56.1891 6.15677 56.3341 5.88677 56.5241 5.6601C56.7175 5.43343 56.9525 5.25843 57.2291 5.1351C57.5091 5.00843 57.8291 4.9451 58.1891 4.9451C58.5125 4.9451 58.7991 4.99677 59.0491 5.1001C59.3025 5.20343 59.5225 5.34343 59.7091 5.5201L59.5841 5.6901ZM62.7549 4.9451C63.1116 4.9451 63.4299 5.00677 63.7099 5.1301C63.9932 5.2501 64.2316 5.42177 64.4249 5.6451C64.6182 5.86843 64.7649 6.13843 64.8649 6.4551C64.9682 6.76843 65.0199 7.1201 65.0199 7.5101C65.0199 7.9001 64.9682 8.25177 64.8649 8.5651C64.7649 8.87843 64.6182 9.14677 64.4249 9.3701C64.2316 9.59343 63.9932 9.7651 63.7099 9.8851C63.4299 10.0051 63.1116 10.0651 62.7549 10.0651C62.3982 10.0651 62.0782 10.0051 61.7949 9.8851C61.5149 9.7651 61.2766 9.59343 61.0799 9.3701C60.8866 9.14677 60.7382 8.87843 60.6349 8.5651C60.5349 8.25177 60.4849 7.9001 60.4849 7.5101C60.4849 7.1201 60.5349 6.76843 60.6349 6.4551C60.7382 6.13843 60.8866 5.86843 61.0799 5.6451C61.2766 5.42177 61.5149 5.2501 61.7949 5.1301C62.0782 5.00677 62.3982 4.9451 62.7549 4.9451ZM62.7549 9.6901C63.0516 9.6901 63.3099 9.6401 63.5299 9.5401C63.7532 9.43677 63.9382 9.2901 64.0849 9.1001C64.2349 8.9101 64.3466 8.68177 64.4199 8.4151C64.4932 8.1451 64.5299 7.84343 64.5299 7.5101C64.5299 7.1801 64.4932 6.8801 64.4199 6.6101C64.3466 6.3401 64.2349 6.1101 64.0849 5.9201C63.9382 5.72677 63.7532 5.57843 63.5299 5.4751C63.3099 5.37177 63.0516 5.3201 62.7549 5.3201C62.4582 5.3201 62.1982 5.37177 61.9749 5.4751C61.7549 5.57843 61.5699 5.72677 61.4199 5.9201C61.2732 6.1101 61.1616 6.3401 61.0849 6.6101C61.0116 6.8801 60.9749 7.1801 60.9749 7.5101C60.9749 7.84343 61.0116 8.1451 61.0849 8.4151C61.1616 8.68177 61.2732 8.9101 61.4199 9.1001C61.5699 9.2901 61.7549 9.43677 61.9749 9.5401C62.1982 9.6401 62.4582 9.6901 62.7549 9.6901ZM66.6251 5.0251V8.2051C66.6251 8.67177 66.7317 9.03843 66.9451 9.3051C67.1584 9.56843 67.4834 9.7001 67.9201 9.7001C68.2434 9.7001 68.5451 9.61843 68.8251 9.4551C69.1051 9.28843 69.3567 9.05843 69.5801 8.7651V5.0251H70.0601V10.0001H69.7951C69.7017 10.0001 69.6534 9.95677 69.6501 9.8701L69.6051 9.1301C69.3751 9.41677 69.1084 9.64677 68.8051 9.8201C68.5051 9.99343 68.1701 10.0801 67.8001 10.0801C67.5234 10.0801 67.2817 10.0368 67.0751 9.9501C66.8684 9.86343 66.6967 9.73843 66.5601 9.5751C66.4234 9.41177 66.3201 9.2151 66.2501 8.9851C66.1801 8.7551 66.1451 8.4951 66.1451 8.2051V5.0251H66.6251ZM71.6802 10.0001V5.0251H71.9402C72.0269 5.0251 72.0769 5.06677 72.0902 5.1501L72.1352 5.9001C72.3619 5.61343 72.6252 5.38343 72.9252 5.2101C73.2286 5.03343 73.5652 4.9451 73.9352 4.9451C74.2086 4.9451 74.4486 4.98843 74.6552 5.0751C74.8652 5.16177 75.0386 5.28677 75.1752 5.4501C75.3119 5.61343 75.4152 5.8101 75.4852 6.0401C75.5552 6.2701 75.5902 6.5301 75.5902 6.8201V10.0001H75.1152V6.8201C75.1152 6.35343 75.0086 5.98843 74.7952 5.7251C74.5819 5.45843 74.2552 5.3251 73.8152 5.3251C73.4886 5.3251 73.1852 5.4101 72.9052 5.5801C72.6252 5.74677 72.3752 5.97677 72.1552 6.2701V10.0001H71.6802ZM78.4504 10.0801C78.1137 10.0801 77.8504 9.98677 77.6604 9.8001C77.4737 9.61343 77.3804 9.3251 77.3804 8.9351V5.5351H76.6654C76.6287 5.5351 76.5987 5.5251 76.5754 5.5051C76.552 5.4851 76.5404 5.45677 76.5404 5.4201V5.2351L77.3904 5.1751L77.5104 3.3951C77.5137 3.3651 77.5254 3.33843 77.5454 3.3151C77.5687 3.29177 77.5987 3.2801 77.6354 3.2801H77.8604V5.1801H79.4254V5.5351H77.8604V8.9101C77.8604 9.04677 77.877 9.1651 77.9104 9.2651C77.947 9.36177 77.9954 9.44177 78.0554 9.5051C78.1187 9.56843 78.192 9.6151 78.2754 9.6451C78.3587 9.6751 78.4487 9.6901 78.5454 9.6901C78.6654 9.6901 78.7687 9.67343 78.8554 9.6401C78.942 9.60343 79.017 9.5651 79.0804 9.5251C79.1437 9.48177 79.1954 9.44343 79.2354 9.4101C79.2754 9.37343 79.307 9.3551 79.3304 9.3551C79.357 9.3551 79.3837 9.37177 79.4104 9.4051L79.5404 9.6151C79.4137 9.7551 79.252 9.86843 79.0554 9.9551C78.862 10.0384 78.6604 10.0801 78.4504 10.0801ZM1.60787 18.8501C1.60787 19.5968 1.70787 20.3134 1.90787 21.0001C2.11121 21.6834 2.41287 22.3434 2.81287 22.9801C2.83621 23.0168 2.84787 23.0518 2.84787 23.0851C2.84787 23.1351 2.82454 23.1718 2.77787 23.1951L2.56787 23.3251C2.31121 22.9318 2.09454 22.5501 1.91787 22.1801C1.74454 21.8134 1.60454 21.4484 1.49787 21.0851C1.39121 20.7184 1.31287 20.3518 1.26287 19.9851C1.21621 19.6184 1.19287 19.2401 1.19287 18.8501C1.19287 18.4601 1.21621 18.0818 1.26287 17.7151C1.31287 17.3451 1.39121 16.9784 1.49787 16.6151C1.60454 16.2484 1.74454 15.8818 1.91787 15.5151C2.09454 15.1451 2.31121 14.7634 2.56787 14.3701L2.77787 14.5001C2.82121 14.5234 2.84287 14.5584 2.84287 14.6051C2.84287 14.6384 2.83121 14.6734 2.80787 14.7101C2.41121 15.3501 2.11121 16.0134 1.90787 16.7001C1.70787 17.3834 1.60787 18.1001 1.60787 18.8501ZM4.33592 22.0001V17.5451L3.63592 17.5001C3.53925 17.4934 3.49092 17.4518 3.49092 17.3751V17.1801H4.33592V16.5501C4.33592 16.2668 4.37259 16.0184 4.44592 15.8051C4.51925 15.5884 4.62259 15.4084 4.75592 15.2651C4.88925 15.1218 5.04925 15.0151 5.23592 14.9451C5.42592 14.8718 5.63425 14.8351 5.86092 14.8351C5.96425 14.8351 6.06759 14.8451 6.17092 14.8651C6.27759 14.8818 6.37092 14.9068 6.45092 14.9401L6.43592 15.1701C6.43259 15.2168 6.40092 15.2401 6.34092 15.2401C6.30092 15.2401 6.24592 15.2351 6.17592 15.2251C6.10925 15.2151 6.02592 15.2101 5.92592 15.2101C5.76259 15.2101 5.61092 15.2351 5.47092 15.2851C5.33425 15.3318 5.21592 15.4084 5.11592 15.5151C5.01592 15.6218 4.93759 15.7618 4.88092 15.9351C4.82759 16.1051 4.80092 16.3151 4.80092 16.5651V17.1801H6.41592V17.5351H4.81092V22.0001H4.33592ZM9.26858 16.9451C9.62524 16.9451 9.94358 17.0068 10.2236 17.1301C10.5069 17.2501 10.7452 17.4218 10.9386 17.6451C11.1319 17.8684 11.2786 18.1384 11.3786 18.4551C11.4819 18.7684 11.5336 19.1201 11.5336 19.5101C11.5336 19.9001 11.4819 20.2518 11.3786 20.5651C11.2786 20.8784 11.1319 21.1468 10.9386 21.3701C10.7452 21.5934 10.5069 21.7651 10.2236 21.8851C9.94358 22.0051 9.62524 22.0651 9.26858 22.0651C8.91191 22.0651 8.59191 22.0051 8.30858 21.8851C8.02858 21.7651 7.79024 21.5934 7.59358 21.3701C7.40024 21.1468 7.25191 20.8784 7.14858 20.5651C7.04858 20.2518 6.99858 19.9001 6.99858 19.5101C6.99858 19.1201 7.04858 18.7684 7.14858 18.4551C7.25191 18.1384 7.40024 17.8684 7.59358 17.6451C7.79024 17.4218 8.02858 17.2501 8.30858 17.1301C8.59191 17.0068 8.91191 16.9451 9.26858 16.9451ZM9.26858 21.6901C9.56524 21.6901 9.82358 21.6401 10.0436 21.5401C10.2669 21.4368 10.4519 21.2901 10.5986 21.1001C10.7486 20.9101 10.8602 20.6818 10.9336 20.4151C11.0069 20.1451 11.0436 19.8434 11.0436 19.5101C11.0436 19.1801 11.0069 18.8801 10.9336 18.6101C10.8602 18.3401 10.7486 18.1101 10.5986 17.9201C10.4519 17.7268 10.2669 17.5784 10.0436 17.4751C9.82358 17.3718 9.56524 17.3201 9.26858 17.3201C8.97191 17.3201 8.71191 17.3718 8.48858 17.4751C8.26858 17.5784 8.08358 17.7268 7.93358 17.9201C7.78691 18.1101 7.67524 18.3401 7.59858 18.6101C7.52524 18.8801 7.48858 19.1801 7.48858 19.5101C7.48858 19.8434 7.52524 20.1451 7.59858 20.4151C7.67524 20.6818 7.78691 20.9101 7.93358 21.1001C8.08358 21.2901 8.26858 21.4368 8.48858 21.5401C8.71191 21.6401 8.97191 21.6901 9.26858 21.6901ZM12.7837 22.0001V17.0251H13.0337C13.0904 17.0251 13.1304 17.0368 13.1537 17.0601C13.1804 17.0834 13.1954 17.1234 13.1987 17.1801L13.2387 18.2301C13.3987 17.8268 13.6121 17.5118 13.8787 17.2851C14.1454 17.0551 14.4737 16.9401 14.8637 16.9401C15.0137 16.9401 15.1521 16.9568 15.2787 16.9901C15.4054 17.0201 15.5254 17.0651 15.6387 17.1251L15.5737 17.4551C15.5637 17.5084 15.5304 17.5351 15.4737 17.5351C15.4537 17.5351 15.4254 17.5284 15.3887 17.5151C15.3521 17.5018 15.3054 17.4868 15.2487 17.4701C15.1954 17.4534 15.1287 17.4384 15.0487 17.4251C14.9687 17.4118 14.8771 17.4051 14.7737 17.4051C14.3971 17.4051 14.0871 17.5218 13.8437 17.7551C13.6037 17.9884 13.4087 18.3251 13.2587 18.7651V22.0001H12.7837ZM20.5669 16.9451C20.8469 16.9451 21.1053 16.9934 21.3419 17.0901C21.5819 17.1868 21.7886 17.3284 21.9619 17.5151C22.1386 17.6984 22.2753 17.9251 22.3719 18.1951C22.4719 18.4651 22.5219 18.7751 22.5219 19.1251C22.5219 19.1984 22.5103 19.2484 22.4869 19.2751C22.4669 19.3018 22.4336 19.3151 22.3869 19.3151H18.7919V19.4101C18.7919 19.7834 18.8353 20.1118 18.9219 20.3951C19.0086 20.6784 19.1319 20.9168 19.2919 21.1101C19.4519 21.3001 19.6453 21.4434 19.8719 21.5401C20.0986 21.6368 20.3519 21.6851 20.6319 21.6851C20.8819 21.6851 21.0986 21.6584 21.2819 21.6051C21.4653 21.5484 21.6186 21.4868 21.7419 21.4201C21.8686 21.3501 21.9686 21.2884 22.0419 21.2351C22.1153 21.1784 22.1686 21.1501 22.2019 21.1501C22.2453 21.1501 22.2786 21.1668 22.3019 21.2001L22.4319 21.3601C22.3519 21.4601 22.2453 21.5534 22.1119 21.6401C21.9819 21.7268 21.8353 21.8018 21.6719 21.8651C21.5119 21.9251 21.3386 21.9734 21.1519 22.0101C20.9686 22.0468 20.7836 22.0651 20.5969 22.0651C20.2569 22.0651 19.9469 22.0068 19.6669 21.8901C19.3869 21.7701 19.1469 21.5968 18.9469 21.3701C18.7469 21.1434 18.5919 20.8668 18.4819 20.5401C18.3753 20.2101 18.3219 19.8334 18.3219 19.4101C18.3219 19.0534 18.3719 18.7251 18.4719 18.4251C18.5753 18.1218 18.7219 17.8618 18.9119 17.6451C19.1053 17.4251 19.3403 17.2534 19.6169 17.1301C19.8969 17.0068 20.2136 16.9451 20.5669 16.9451ZM20.5719 17.3001C20.3153 17.3001 20.0853 17.3401 19.8819 17.4201C19.6786 17.5001 19.5019 17.6151 19.3519 17.7651C19.2053 17.9151 19.0853 18.0951 18.9919 18.3051C18.9019 18.5151 18.8419 18.7501 18.8119 19.0101H22.0919C22.0919 18.7434 22.0553 18.5051 21.9819 18.2951C21.9086 18.0818 21.8053 17.9018 21.6719 17.7551C21.5386 17.6084 21.3786 17.4968 21.1919 17.4201C21.0053 17.3401 20.7986 17.3001 20.5719 17.3001ZM24.6616 19.4551L22.9316 17.0251H23.3866C23.4333 17.0251 23.4666 17.0351 23.4866 17.0551C23.51 17.0751 23.53 17.0984 23.5466 17.1251L25.0066 19.2351C25.02 19.1784 25.0483 19.1184 25.0916 19.0551L26.4566 17.1301C26.4733 17.1001 26.4933 17.0751 26.5166 17.0551C26.5433 17.0351 26.5733 17.0251 26.6066 17.0251H27.0466L25.3066 19.4301L27.1166 22.0001H26.6616C26.615 22.0001 26.5783 21.9868 26.5516 21.9601C26.525 21.9301 26.5033 21.9018 26.4866 21.8751L24.9766 19.6751C24.96 19.7418 24.935 19.7984 24.9016 19.8451L23.4516 21.8851C23.4283 21.9151 23.4033 21.9418 23.3766 21.9651C23.3533 21.9884 23.3233 22.0001 23.2866 22.0001H22.8616L24.6616 19.4551ZM31.281 22.0001C31.181 22.0001 31.1193 21.9534 31.096 21.8601L31.026 21.2251C30.8893 21.3584 30.7527 21.4784 30.616 21.5851C30.4827 21.6918 30.3427 21.7818 30.196 21.8551C30.0493 21.9284 29.891 21.9834 29.721 22.0201C29.551 22.0601 29.3643 22.0801 29.161 22.0801C28.991 22.0801 28.826 22.0551 28.666 22.0051C28.506 21.9551 28.3643 21.8784 28.241 21.7751C28.1177 21.6718 28.0177 21.5401 27.941 21.3801C27.8677 21.2168 27.831 21.0218 27.831 20.7951C27.831 20.5851 27.891 20.3901 28.011 20.2101C28.131 20.0301 28.3177 19.8734 28.571 19.7401C28.8277 19.6068 29.156 19.5001 29.556 19.4201C29.9593 19.3401 30.4427 19.2934 31.006 19.2801V18.7601C31.006 18.3001 30.906 17.9468 30.706 17.7001C30.5093 17.4501 30.216 17.3251 29.826 17.3251C29.586 17.3251 29.381 17.3584 29.211 17.4251C29.0443 17.4918 28.9027 17.5651 28.786 17.6451C28.6693 17.7251 28.5743 17.7984 28.501 17.8651C28.4277 17.9318 28.366 17.9651 28.316 17.9651C28.2493 17.9651 28.1993 17.9351 28.166 17.8751L28.081 17.7301C28.341 17.4701 28.6143 17.2734 28.901 17.1401C29.1877 17.0068 29.5127 16.9401 29.876 16.9401C30.1427 16.9401 30.376 16.9834 30.576 17.0701C30.776 17.1534 30.941 17.2751 31.071 17.4351C31.2043 17.5918 31.3043 17.7834 31.371 18.0101C31.4377 18.2334 31.471 18.4834 31.471 18.7601V22.0001H31.281ZM29.281 21.7351C29.4743 21.7351 29.651 21.7151 29.811 21.6751C29.9743 21.6318 30.1243 21.5734 30.261 21.5001C30.401 21.4234 30.531 21.3334 30.651 21.2301C30.771 21.1268 30.8893 21.0151 31.006 20.8951V19.6001C30.5327 19.6134 30.1243 19.6501 29.781 19.7101C29.441 19.7668 29.1593 19.8451 28.936 19.9451C28.716 20.0451 28.5527 20.1651 28.446 20.3051C28.3427 20.4418 28.291 20.5984 28.291 20.7751C28.291 20.9418 28.3177 21.0868 28.371 21.2101C28.4277 21.3301 28.501 21.4301 28.591 21.5101C28.681 21.5868 28.786 21.6434 28.906 21.6801C29.026 21.7168 29.151 21.7351 29.281 21.7351ZM32.9693 22.0001V17.0251H33.2293C33.3159 17.0251 33.3659 17.0668 33.3793 17.1501L33.4243 17.8701C33.5209 17.7334 33.6243 17.6084 33.7343 17.4951C33.8443 17.3818 33.9609 17.2851 34.0843 17.2051C34.2109 17.1218 34.3443 17.0584 34.4843 17.0151C34.6276 16.9684 34.7776 16.9451 34.9343 16.9451C35.2976 16.9451 35.5876 17.0518 35.8043 17.2651C36.0209 17.4751 36.1676 17.7684 36.2443 18.1451C36.3043 17.9384 36.3876 17.7601 36.4943 17.6101C36.6043 17.4601 36.7293 17.3368 36.8693 17.2401C37.0093 17.1401 37.1609 17.0668 37.3243 17.0201C37.4909 16.9701 37.6609 16.9451 37.8343 16.9451C38.0809 16.9451 38.3026 16.9868 38.4993 17.0701C38.6959 17.1501 38.8626 17.2701 38.9993 17.4301C39.1393 17.5901 39.2459 17.7868 39.3193 18.0201C39.3926 18.2534 39.4293 18.5201 39.4293 18.8201V22.0001H38.9493V18.8201C38.9493 18.3334 38.8443 17.9634 38.6343 17.7101C38.4243 17.4534 38.1243 17.3251 37.7343 17.3251C37.5609 17.3251 37.3943 17.3568 37.2343 17.4201C37.0776 17.4834 36.9376 17.5784 36.8143 17.7051C36.6943 17.8284 36.5976 17.9834 36.5243 18.1701C36.4543 18.3568 36.4193 18.5734 36.4193 18.8201V22.0001H35.9443V18.8201C35.9443 18.3368 35.8476 17.9668 35.6543 17.7101C35.4609 17.4534 35.1793 17.3251 34.8093 17.3251C34.5393 17.3251 34.2893 17.4068 34.0593 17.5701C33.8293 17.7301 33.6243 17.9534 33.4443 18.2401V22.0001H32.9693ZM40.9283 23.7601V17.0251H41.1883C41.2316 17.0251 41.2666 17.0351 41.2933 17.0551C41.3199 17.0718 41.3349 17.1034 41.3383 17.1501L41.3833 17.9201C41.6033 17.6201 41.8599 17.3818 42.1533 17.2051C42.4499 17.0284 42.7816 16.9401 43.1483 16.9401C43.7616 16.9401 44.2383 17.1518 44.5783 17.5751C44.9183 17.9984 45.0883 18.6334 45.0883 19.4801C45.0883 19.8434 45.0399 20.1834 44.9433 20.5001C44.8499 20.8134 44.7116 21.0868 44.5283 21.3201C44.3449 21.5501 44.1183 21.7318 43.8483 21.8651C43.5816 21.9984 43.2733 22.0651 42.9233 22.0651C42.5833 22.0651 42.2899 22.0034 42.0433 21.8801C41.7966 21.7568 41.5833 21.5734 41.4033 21.3301V23.7601H40.9283ZM43.0133 17.3251C42.6833 17.3251 42.3833 17.4118 42.1133 17.5851C41.8466 17.7551 41.6099 17.9934 41.4033 18.3001V20.9101C41.5933 21.1968 41.8033 21.3984 42.0333 21.5151C42.2666 21.6318 42.5316 21.6901 42.8283 21.6901C43.1216 21.6901 43.3783 21.6368 43.5983 21.5301C43.8183 21.4234 44.0016 21.2734 44.1483 21.0801C44.2983 20.8834 44.4099 20.6501 44.4833 20.3801C44.5599 20.1068 44.5983 19.8068 44.5983 19.4801C44.5983 18.7401 44.4616 18.1968 44.1883 17.8501C43.9183 17.5001 43.5266 17.3251 43.0133 17.3251ZM46.8948 14.7251V22.0001H46.4198V14.7251H46.8948ZM50.5279 16.9451C50.8079 16.9451 51.0662 16.9934 51.3029 17.0901C51.5429 17.1868 51.7495 17.3284 51.9229 17.5151C52.0995 17.6984 52.2362 17.9251 52.3329 18.1951C52.4329 18.4651 52.4829 18.7751 52.4829 19.1251C52.4829 19.1984 52.4712 19.2484 52.4479 19.2751C52.4279 19.3018 52.3945 19.3151 52.3479 19.3151H48.7529V19.4101C48.7529 19.7834 48.7962 20.1118 48.8829 20.3951C48.9695 20.6784 49.0929 20.9168 49.2529 21.1101C49.4129 21.3001 49.6062 21.4434 49.8329 21.5401C50.0595 21.6368 50.3129 21.6851 50.5929 21.6851C50.8429 21.6851 51.0595 21.6584 51.2429 21.6051C51.4262 21.5484 51.5795 21.4868 51.7029 21.4201C51.8295 21.3501 51.9295 21.2884 52.0029 21.2351C52.0762 21.1784 52.1295 21.1501 52.1629 21.1501C52.2062 21.1501 52.2395 21.1668 52.2629 21.2001L52.3929 21.3601C52.3129 21.4601 52.2062 21.5534 52.0729 21.6401C51.9429 21.7268 51.7962 21.8018 51.6329 21.8651C51.4729 21.9251 51.2995 21.9734 51.1129 22.0101C50.9295 22.0468 50.7445 22.0651 50.5579 22.0651C50.2179 22.0651 49.9079 22.0068 49.6279 21.8901C49.3479 21.7701 49.1079 21.5968 48.9079 21.3701C48.7079 21.1434 48.5529 20.8668 48.4429 20.5401C48.3362 20.2101 48.2829 19.8334 48.2829 19.4101C48.2829 19.0534 48.3329 18.7251 48.4329 18.4251C48.5362 18.1218 48.6829 17.8618 48.8729 17.6451C49.0662 17.4251 49.3012 17.2534 49.5779 17.1301C49.8579 17.0068 50.1745 16.9451 50.5279 16.9451ZM50.5329 17.3001C50.2762 17.3001 50.0462 17.3401 49.8429 17.4201C49.6395 17.5001 49.4629 17.6151 49.3129 17.7651C49.1662 17.9151 49.0462 18.0951 48.9529 18.3051C48.8629 18.5151 48.8029 18.7501 48.7729 19.0101H52.0529C52.0529 18.7434 52.0162 18.5051 51.9429 18.2951C51.8695 18.0818 51.7662 17.9018 51.6329 17.7551C51.4995 17.6084 51.3395 17.4968 51.1529 17.4201C50.9662 17.3401 50.7595 17.3001 50.5329 17.3001ZM55.6939 23.7601V17.0251H55.9539C55.9972 17.0251 56.0322 17.0351 56.0589 17.0551C56.0856 17.0718 56.1006 17.1034 56.1039 17.1501L56.1489 17.9201C56.3689 17.6201 56.6256 17.3818 56.9189 17.2051C57.2156 17.0284 57.5472 16.9401 57.9139 16.9401C58.5272 16.9401 59.0039 17.1518 59.3439 17.5751C59.6839 17.9984 59.8539 18.6334 59.8539 19.4801C59.8539 19.8434 59.8056 20.1834 59.7089 20.5001C59.6156 20.8134 59.4772 21.0868 59.2939 21.3201C59.1106 21.5501 58.8839 21.7318 58.6139 21.8651C58.3472 21.9984 58.0389 22.0651 57.6889 22.0651C57.3489 22.0651 57.0556 22.0034 56.8089 21.8801C56.5622 21.7568 56.3489 21.5734 56.1689 21.3301V23.7601H55.6939ZM57.7789 17.3251C57.4489 17.3251 57.1489 17.4118 56.8789 17.5851C56.6122 17.7551 56.3756 17.9934 56.1689 18.3001V20.9101C56.3589 21.1968 56.5689 21.3984 56.7989 21.5151C57.0322 21.6318 57.2972 21.6901 57.5939 21.6901C57.8872 21.6901 58.1439 21.6368 58.3639 21.5301C58.5839 21.4234 58.7672 21.2734 58.9139 21.0801C59.0639 20.8834 59.1756 20.6501 59.2489 20.3801C59.3256 20.1068 59.3639 19.8068 59.3639 19.4801C59.3639 18.7401 59.2272 18.1968 58.9539 17.8501C58.6839 17.5001 58.2922 17.3251 57.7789 17.3251ZM61.4005 17.0251V20.2051C61.4005 20.6718 61.5071 21.0384 61.7205 21.3051C61.9338 21.5684 62.2588 21.7001 62.6955 21.7001C63.0188 21.7001 63.3205 21.6184 63.6005 21.4551C63.8805 21.2884 64.1321 21.0584 64.3555 20.7651V17.0251H64.8355V22.0001H64.5705C64.4771 22.0001 64.4288 21.9568 64.4255 21.8701L64.3805 21.1301C64.1505 21.4168 63.8838 21.6468 63.5805 21.8201C63.2805 21.9934 62.9455 22.0801 62.5755 22.0801C62.2988 22.0801 62.0571 22.0368 61.8505 21.9501C61.6438 21.8634 61.4721 21.7384 61.3355 21.5751C61.1988 21.4118 61.0955 21.2151 61.0255 20.9851C60.9555 20.7551 60.9205 20.4951 60.9205 20.2051V17.0251H61.4005ZM66.4556 22.0001V17.0251H66.7056C66.7623 17.0251 66.8023 17.0368 66.8256 17.0601C66.8523 17.0834 66.8673 17.1234 66.8706 17.1801L66.9106 18.2301C67.0706 17.8268 67.2839 17.5118 67.5506 17.2851C67.8173 17.0551 68.1456 16.9401 68.5356 16.9401C68.6856 16.9401 68.8239 16.9568 68.9506 16.9901C69.0773 17.0201 69.1973 17.0651 69.3106 17.1251L69.2456 17.4551C69.2356 17.5084 69.2023 17.5351 69.1456 17.5351C69.1256 17.5351 69.0973 17.5284 69.0606 17.5151C69.0239 17.5018 68.9773 17.4868 68.9206 17.4701C68.8673 17.4534 68.8006 17.4384 68.7206 17.4251C68.6406 17.4118 68.5489 17.4051 68.4456 17.4051C68.0689 17.4051 67.7589 17.5218 67.5156 17.7551C67.2756 17.9884 67.0806 18.3251 66.9306 18.7651V22.0001H66.4556ZM70.4302 23.7601V17.0251H70.6902C70.7336 17.0251 70.7686 17.0351 70.7952 17.0551C70.8219 17.0718 70.8369 17.1034 70.8402 17.1501L70.8852 17.9201C71.1052 17.6201 71.3619 17.3818 71.6552 17.2051C71.9519 17.0284 72.2836 16.9401 72.6502 16.9401C73.2636 16.9401 73.7402 17.1518 74.0802 17.5751C74.4202 17.9984 74.5902 18.6334 74.5902 19.4801C74.5902 19.8434 74.5419 20.1834 74.4452 20.5001C74.3519 20.8134 74.2136 21.0868 74.0302 21.3201C73.8469 21.5501 73.6202 21.7318 73.3502 21.8651C73.0836 21.9984 72.7752 22.0651 72.4252 22.0651C72.0852 22.0651 71.7919 22.0034 71.5452 21.8801C71.2986 21.7568 71.0852 21.5734 70.9052 21.3301V23.7601H70.4302ZM72.5152 17.3251C72.1852 17.3251 71.8852 17.4118 71.6152 17.5851C71.3486 17.7551 71.1119 17.9934 70.9052 18.3001V20.9101C71.0952 21.1968 71.3052 21.3984 71.5352 21.5151C71.7686 21.6318 72.0336 21.6901 72.3302 21.6901C72.6236 21.6901 72.8802 21.6368 73.1002 21.5301C73.3202 21.4234 73.5036 21.2734 73.6502 21.0801C73.8002 20.8834 73.9119 20.6501 73.9852 20.3801C74.0619 20.1068 74.1002 19.8068 74.1002 19.4801C74.1002 18.7401 73.9636 18.1968 73.6902 17.8501C73.4202 17.5001 73.0286 17.3251 72.5152 17.3251ZM77.6768 16.9451C78.0334 16.9451 78.3518 17.0068 78.6318 17.1301C78.9151 17.2501 79.1534 17.4218 79.3468 17.6451C79.5401 17.8684 79.6868 18.1384 79.7868 18.4551C79.8901 18.7684 79.9418 19.1201 79.9418 19.5101C79.9418 19.9001 79.8901 20.2518 79.7868 20.5651C79.6868 20.8784 79.5401 21.1468 79.3468 21.3701C79.1534 21.5934 78.9151 21.7651 78.6318 21.8851C78.3518 22.0051 78.0334 22.0651 77.6768 22.0651C77.3201 22.0651 77.0001 22.0051 76.7168 21.8851C76.4368 21.7651 76.1984 21.5934 76.0018 21.3701C75.8084 21.1468 75.6601 20.8784 75.5568 20.5651C75.4568 20.2518 75.4068 19.9001 75.4068 19.5101C75.4068 19.1201 75.4568 18.7684 75.5568 18.4551C75.6601 18.1384 75.8084 17.8684 76.0018 17.6451C76.1984 17.4218 76.4368 17.2501 76.7168 17.1301C77.0001 17.0068 77.3201 16.9451 77.6768 16.9451ZM77.6768 21.6901C77.9734 21.6901 78.2318 21.6401 78.4518 21.5401C78.6751 21.4368 78.8601 21.2901 79.0068 21.1001C79.1568 20.9101 79.2684 20.6818 79.3418 20.4151C79.4151 20.1451 79.4518 19.8434 79.4518 19.5101C79.4518 19.1801 79.4151 18.8801 79.3418 18.6101C79.2684 18.3401 79.1568 18.1101 79.0068 17.9201C78.8601 17.7268 78.6751 17.5784 78.4518 17.4751C78.2318 17.3718 77.9734 17.3201 77.6768 17.3201C77.3801 17.3201 77.1201 17.3718 76.8968 17.4751C76.6768 17.5784 76.4918 17.7268 76.3418 17.9201C76.1951 18.1101 76.0834 18.3401 76.0068 18.6101C75.9334 18.8801 75.8968 19.1801 75.8968 19.5101C75.8968 19.8434 75.9334 20.1451 76.0068 20.4151C76.0834 20.6818 76.1951 20.9101 76.3418 21.1001C76.4918 21.2901 76.6768 21.4368 76.8968 21.5401C77.1201 21.6401 77.3801 21.6901 77.6768 21.6901ZM83.9319 17.6401C83.9086 17.6868 83.8719 17.7101 83.8219 17.7101C83.7853 17.7101 83.7369 17.6901 83.6769 17.6501C83.6203 17.6068 83.5436 17.5601 83.4469 17.5101C83.3536 17.4568 83.2369 17.4101 83.0969 17.3701C82.9603 17.3268 82.7919 17.3051 82.5919 17.3051C82.4119 17.3051 82.2469 17.3318 82.0969 17.3851C81.9503 17.4351 81.8236 17.5034 81.7169 17.5901C81.6136 17.6768 81.5319 17.7784 81.4719 17.8951C81.4153 18.0084 81.3869 18.1284 81.3869 18.2551C81.3869 18.4118 81.4269 18.5418 81.5069 18.6451C81.5869 18.7484 81.6919 18.8368 81.8219 18.9101C81.9519 18.9834 82.0986 19.0468 82.2619 19.1001C82.4286 19.1534 82.5986 19.2068 82.7719 19.2601C82.9453 19.3134 83.1136 19.3734 83.2769 19.4401C83.4436 19.5034 83.5919 19.5834 83.7219 19.6801C83.8519 19.7768 83.9569 19.8951 84.0369 20.0351C84.1169 20.1751 84.1569 20.3451 84.1569 20.5451C84.1569 20.7618 84.1169 20.9634 84.0369 21.1501C83.9603 21.3368 83.8469 21.4984 83.6969 21.6351C83.5503 21.7718 83.3686 21.8801 83.1519 21.9601C82.9353 22.0401 82.6886 22.0801 82.4119 22.0801C82.0619 22.0801 81.7603 22.0251 81.5069 21.9151C81.2536 21.8018 81.0269 21.6551 80.8269 21.4751L80.9419 21.3051C80.9586 21.2784 80.9769 21.2584 80.9969 21.2451C81.0169 21.2318 81.0453 21.2251 81.0819 21.2251C81.1253 21.2251 81.1786 21.2518 81.2419 21.3051C81.3053 21.3584 81.3869 21.4168 81.4869 21.4801C81.5903 21.5401 81.7169 21.5968 81.8669 21.6501C82.0203 21.7034 82.2086 21.7301 82.4319 21.7301C82.6419 21.7301 82.8269 21.7018 82.9869 21.6451C83.1469 21.5851 83.2803 21.5051 83.3869 21.4051C83.4936 21.3051 83.5736 21.1884 83.6269 21.0551C83.6836 20.9184 83.7119 20.7751 83.7119 20.6251C83.7119 20.4584 83.6719 20.3201 83.5919 20.2101C83.5119 20.1001 83.4069 20.0068 83.2769 19.9301C83.1469 19.8534 82.9986 19.7884 82.8319 19.7351C82.6686 19.6818 82.4986 19.6284 82.3219 19.5751C82.1486 19.5218 81.9786 19.4634 81.8119 19.4001C81.6486 19.3368 81.5019 19.2568 81.3719 19.1601C81.2419 19.0634 81.1369 18.9468 81.0569 18.8101C80.9769 18.6701 80.9369 18.4968 80.9369 18.2901C80.9369 18.1134 80.9753 17.9434 81.0519 17.7801C81.1286 17.6168 81.2369 17.4734 81.3769 17.3501C81.5203 17.2268 81.6936 17.1284 81.8969 17.0551C82.1003 16.9818 82.3286 16.9451 82.5819 16.9451C82.8853 16.9451 83.1536 16.9884 83.3869 17.0751C83.6236 17.1618 83.8403 17.2951 84.0369 17.4751L83.9319 17.6401ZM87.3638 16.9451C87.6438 16.9451 87.9021 16.9934 88.1388 17.0901C88.3788 17.1868 88.5855 17.3284 88.7588 17.5151C88.9355 17.6984 89.0721 17.9251 89.1688 18.1951C89.2688 18.4651 89.3188 18.7751 89.3188 19.1251C89.3188 19.1984 89.3071 19.2484 89.2838 19.2751C89.2638 19.3018 89.2305 19.3151 89.1838 19.3151H85.5888V19.4101C85.5888 19.7834 85.6321 20.1118 85.7188 20.3951C85.8055 20.6784 85.9288 20.9168 86.0888 21.1101C86.2488 21.3001 86.4421 21.4434 86.6688 21.5401C86.8955 21.6368 87.1488 21.6851 87.4288 21.6851C87.6788 21.6851 87.8955 21.6584 88.0788 21.6051C88.2621 21.5484 88.4155 21.4868 88.5388 21.4201C88.6655 21.3501 88.7655 21.2884 88.8388 21.2351C88.9121 21.1784 88.9655 21.1501 88.9988 21.1501C89.0421 21.1501 89.0755 21.1668 89.0988 21.2001L89.2288 21.3601C89.1488 21.4601 89.0421 21.5534 88.9088 21.6401C88.7788 21.7268 88.6321 21.8018 88.4688 21.8651C88.3088 21.9251 88.1355 21.9734 87.9488 22.0101C87.7655 22.0468 87.5805 22.0651 87.3938 22.0651C87.0538 22.0651 86.7438 22.0068 86.4638 21.8901C86.1838 21.7701 85.9438 21.5968 85.7438 21.3701C85.5438 21.1434 85.3888 20.8668 85.2788 20.5401C85.1721 20.2101 85.1188 19.8334 85.1188 19.4101C85.1188 19.0534 85.1688 18.7251 85.2688 18.4251C85.3721 18.1218 85.5188 17.8618 85.7088 17.6451C85.9021 17.4251 86.1371 17.2534 86.4138 17.1301C86.6938 17.0068 87.0105 16.9451 87.3638 16.9451ZM87.3688 17.3001C87.1121 17.3001 86.8821 17.3401 86.6788 17.4201C86.4755 17.5001 86.2988 17.6151 86.1488 17.7651C86.0021 17.9151 85.8821 18.0951 85.7888 18.3051C85.6988 18.5151 85.6388 18.7501 85.6088 19.0101H88.8888C88.8888 18.7434 88.8521 18.5051 88.7788 18.2951C88.7055 18.0818 88.6021 17.9018 88.4688 17.7551C88.3355 17.6084 88.1755 17.4968 87.9888 17.4201C87.8021 17.3401 87.5955 17.3001 87.3688 17.3001ZM91.3893 18.8501C91.3893 18.1001 91.2876 17.3834 91.0843 16.7001C90.8843 16.0134 90.5859 15.3501 90.1893 14.7101C90.1659 14.6734 90.1543 14.6384 90.1543 14.6051C90.1543 14.5584 90.1759 14.5234 90.2193 14.5001L90.4293 14.3701C90.6826 14.7634 90.8976 15.1451 91.0743 15.5151C91.2509 15.8818 91.3926 16.2484 91.4993 16.6151C91.6059 16.9784 91.6826 17.3451 91.7293 17.7151C91.7793 18.0818 91.8043 18.4601 91.8043 18.8501C91.8043 19.2401 91.7793 19.6184 91.7293 19.9851C91.6826 20.3518 91.6059 20.7184 91.4993 21.0851C91.3926 21.4484 91.2509 21.8134 91.0743 22.1801C90.8976 22.5501 90.6826 22.9318 90.4293 23.3251L90.2193 23.1951C90.1726 23.1718 90.1493 23.1351 90.1493 23.0851C90.1493 23.0518 90.1609 23.0168 90.1843 22.9801C90.5843 22.3434 90.8843 21.6834 91.0843 21.0001C91.2876 20.3134 91.3893 19.5968 91.3893 18.8501Z" fill="white"/>
</svg>
